<svg viewBox="0 0 557 521" fill="none" xmlns="http://www.w3.org/2000/svg"><path d="M547 256.5C547 396.931 425.128 511 274.5 511S2 396.931 2 256.5C2 116.069 123.872 2 274.5 2S547 116.069 547 256.5z" fill="#D0CDFF" stroke="#7A46D1" stroke-width="4"/><g clip-path="url(#a)"><path d="M246.315 88.761h-87.794c-2.794 0-5.473.996-7.449 2.767s-3.086 4.174-3.086 6.679v85.007c0 2.505 1.11 4.908 3.086 6.679 1.976 1.772 4.655 2.767 7.449 2.767h136.958c2.794 0 5.473-.995 7.449-2.767 1.976-1.771 3.086-4.174 3.086-6.679V98.207c0-2.505-1.11-4.908-3.086-6.68-1.976-1.77-4.655-2.766-7.449-2.766h-52.676" fill="#FFD0C6"/><path d="M246.315 88.761h-87.794c-2.794 0-5.473.996-7.449 2.767s-3.086 4.174-3.086 6.679v85.007c0 2.505 1.11 4.908 3.086 6.679 1.976 1.772 4.655 2.767 7.449 2.767h136.958c2.794 0 5.473-.995 7.449-2.767 1.976-1.771 3.086-4.174 3.086-6.679V98.207c0-2.505-1.11-4.908-3.086-6.68-1.976-1.77-4.655-2.766-7.449-2.766h-52.676" stroke="#FFD0C6" stroke-width="3.875" stroke-linecap="round" stroke-linejoin="round"/><path fill="#000" d="M146 102h162v12H146z"/><path d="M202 141v21M206 141v21M211 141v21M245 142v21M277 142v21M282 142v21M271 142v21M227 142v21M216 141v11M266 142v11M254 142v11M239 142v11M221 152v11M260 152v11M233 152v11M292 153v11M287 142v11" stroke="#000" stroke-width="2" stroke-linecap="round"/><path fill="#CFCCFE" d="M249 142h63v22h-63zM239 161h3v36h-3z"/><path fill="#CFCCFE" d="M241 162h9v2h-9zM248 142h2v2h-2z"/></g><mask id="b" fill="#fff"><path d="M247.015 140.64c-7.285 2.877-9.773 7.278-10.306 19.972-.355 6.94-1.244 12.694-1.777 12.694-.533 0-2.31-1.184-3.909-2.538-1.599-1.355-5.508-3.047-8.529-3.555-4.797-1.015-6.574-.169-11.905 4.909-4.442 4.231-6.219 7.447-6.219 11.34 0 8.463.888 9.647 28.075 36.728 3.02 3.216 3.909 5.924 3.909 13.71v9.648l-8.529-.508c-7.996-.508-9.062-.169-14.215 5.585-3.199 3.216-5.686 7.617-5.686 9.479 0 5.077 4.797 11.848 11.727 16.756 3.198 2.37 6.041 4.57 6.041 5.078 0 .677-2.665 2.031-6.041 3.046-7.285 2.539-12.616 11.51-10.839 18.788.533 2.708 4.442 7.616 8.351 11.171l7.286 6.093-5.153 3.046c-2.843 1.693-6.042 4.063-7.108 5.417-3.376 3.893-4.087 12.186-1.599 16.756 2.665 4.908 14.748 14.556 21.145 16.926 3.198 1.015 4.797 3.215 5.686 7.616 1.421 7.617 9.062 12.694 19.012 12.694 6.397 0 8.707 1.524 27.542 18.788 11.549 10.324 29.141 24.542 39.446 31.481 10.306 7.109 19.368 13.372 20.079 14.049.888.677.533 2.877-.888 4.908-2.133 3.385-1.6 4.231 6.396 11.002 4.798 4.062 8.174 8.124 7.463 9.14-.533 1.015 3.199 5.923 8.174 11.001l9.417 9.14 6.219-2.37c27.009-10.663 56.149-27.588 75.517-43.668C470.723 432.607 494 407.388 494 403.664c0-2.031-6.397-8.463-16.525-16.587-9.062-7.447-17.769-14.895-19.545-16.587-2.31-2.201-3.732-2.539-5.153-1.185-1.422 1.354-4.62-.169-11.55-5.755-8.884-7.278-9.773-7.616-12.794-5.077-4.086 3.554-4.975 3.385-7.64-1.185-1.599-2.539-2.31-12.864-2.31-35.036 0-29.451-.355-31.99-4.798-43.161-4.264-11.17-6.929-22.341-9.417-39.775-.711-4.231-2.31-14.894-3.731-23.696-1.422-8.801-2.843-18.618-3.376-21.664-1.067-7.786-2.133-8.802-8.529-8.802-3.732 0-7.819 1.693-11.55 4.57-7.463 6.093-9.773 18.111-8.174 43.33.889 13.202.533 20.988-1.244 27.927-2.309 8.971-2.487 5.416-3.376-50.946l-.888-60.763-5.864-4.908-5.686-4.909-51.174.169c-28.074 0-52.24.508-53.661 1.016zm106.79 4.401c1.599 1.184 3.731 3.723 4.797 5.754 2.843 5.078 3.021 213.432.178 219.356-3.554 7.447-7.64 7.955-60.414 7.955h-49.752l-4.264-4.231c-2.488-2.201-4.443-5.924-4.443-8.124 0-7.109 7.108-7.956 64.501-7.956h52.773V163.151H241.684v42.653c0 23.357-.533 42.144-1.066 41.637-.533-.677-.888-16.926-.888-36.391 0-65.163-.356-59.408 4.62-63.978l4.264-4.232h51.174c37.492.17 51.885.677 54.017 2.201zm1.599 115.432v93.937H254.122l1.067-7.447c1.066-6.939.71-8.124-4.443-12.863-6.752-6.432-6.929-10.325-1.066-15.91 3.376-3.216 4.442-6.094 4.442-11.341 0-5.077-1.421-8.801-4.442-12.694-5.686-6.939-5.508-10.663.178-15.741 3.909-3.554 4.442-5.416 4.087-12.694-.356-6.601-1.422-9.309-4.62-11.678-4.087-3.047-4.087-3.386-4.087-45.361v-42.145h110.166v93.937zm-126.513-87.167c3.198 1.862 6.219 4.401 6.752 5.586.355 1.185.533 10.832.355 21.157l-.533 19.126-13.682-14.556c-11.372-11.848-13.859-15.572-13.859-19.972 0-6.094 2.31-9.817 7.996-12.695 4.975-2.708 6.219-2.539 12.971 1.354zm163.65 17.264c.888 2.201 2.843 13.372 4.442 25.05 4.975 35.036 8.173 50.946 12.971 65.164 4.975 14.048 6.041 30.974 4.264 60.594-.533 9.816-.177 12.355 3.199 16.417 1.954 2.709 3.731 5.755 3.731 6.771 0 1.015-16.169 19.126-35.893 40.283-19.723 21.157-36.07 38.759-36.425 39.098-1.6 2.2-46.554-30.805-67.877-49.931l-13.149-11.678 42.823-.847 43-.846 4.798-4.739 4.975-4.57 1.066-48.746c.889-43.329 1.244-49.253 4.265-55.347 3.02-5.923 3.553-10.663 3.553-36.39 0-32.497.711-35.036 10.306-40.621 7.285-4.231 8.174-4.231 9.951.338zm-159.208 56.194c9.417 3.892 17.946 13.54 17.946 20.479 0 7.786-5.686 13.372-13.682 13.372-7.107 0-23.454-12.187-24.698-18.111-1.422-6.939 1.244-12.186 7.463-15.063 7.463-3.555 6.041-3.555 12.971-.677zm7.996 44.514c8.529 6.601 11.55 12.186 9.95 18.449-1.421 5.247-8.706 10.832-14.215 10.832-5.508 0-22.566-13.371-23.81-18.618-1.777-6.601 1.6-13.71 7.819-16.249 6.929-2.877 10.661-1.692 20.256 5.586zm-.889 38.082c13.327 9.987 15.104 17.095 6.753 25.22-7.286 6.77-12.439 6.262-23.633-2.37-9.773-7.447-11.727-12.186-9.417-20.988 1.244-4.739 10.661-9.309 15.992-7.786 1.954.508 6.574 3.216 10.305 5.924zm195.989 34.19c1.244 1.354 4.62 4.062 7.108 5.924 4.264 3.216 4.442 3.893 2.132 6.601-3.021 3.216-70.186 75.319-79.604 85.305l-6.219 6.601-7.64-7.447-7.641-7.447 43-45.869c23.633-25.388 43.711-46.037 44.6-46.037.888 0 2.843 1.015 4.264 2.369zm23.1 15.741c1.954 1.693 8.884 7.447 15.458 12.863 6.575 5.417 11.906 11.171 11.906 12.864 0 2.877-22.744 26.573-37.67 39.098-8.529 7.109-8.529 7.109-13.327 4.231-2.843-1.692-3.909-2.031-2.665-.677 1.066 1.185 2.132 2.878 2.132 3.555 0 2.031-26.831 18.279-30.207 18.279-1.599 0-4.442-1.523-6.219-3.385-4.797-5.077-14.57-4.57-20.789 1.185-2.665 2.539-4.975 5.586-4.975 6.77 0 3.047-5.153 2.878-6.397-.338-1.599-3.724 39.269-47.223 42.467-45.361 1.066.677 1.422-.169.711-1.862-.888-2.2 2.843-7.108 13.504-18.448 7.996-8.633 17.769-19.126 21.678-23.696 7.641-8.802 9.24-9.309 14.393-5.078zm-66.1 89.536c1.599.677 3.732 2.539 4.62 4.232 1.599 2.708.711 3.554-6.397 6.601-9.24 4.062-13.149 3.554-13.149-1.862 0-7.447 7.286-11.679 14.926-8.971z"/></mask><path d="M247.015 140.64c-7.285 2.877-9.773 7.278-10.306 19.972-.355 6.94-1.244 12.694-1.777 12.694-.533 0-2.31-1.184-3.909-2.538-1.599-1.355-5.508-3.047-8.529-3.555-4.797-1.015-6.574-.169-11.905 4.909-4.442 4.231-6.219 7.447-6.219 11.34 0 8.463.888 9.647 28.075 36.728 3.02 3.216 3.909 5.924 3.909 13.71v9.648l-8.529-.508c-7.996-.508-9.062-.169-14.215 5.585-3.199 3.216-5.686 7.617-5.686 9.479 0 5.077 4.797 11.848 11.727 16.756 3.198 2.37 6.041 4.57 6.041 5.078 0 .677-2.665 2.031-6.041 3.046-7.285 2.539-12.616 11.51-10.839 18.788.533 2.708 4.442 7.616 8.351 11.171l7.286 6.093-5.153 3.046c-2.843 1.693-6.042 4.063-7.108 5.417-3.376 3.893-4.087 12.186-1.599 16.756 2.665 4.908 14.748 14.556 21.145 16.926 3.198 1.015 4.797 3.215 5.686 7.616 1.421 7.617 9.062 12.694 19.012 12.694 6.397 0 8.707 1.524 27.542 18.788 11.549 10.324 29.141 24.542 39.446 31.481 10.306 7.109 19.368 13.372 20.079 14.049.888.677.533 2.877-.888 4.908-2.133 3.385-1.6 4.231 6.396 11.002 4.798 4.062 8.174 8.124 7.463 9.14-.533 1.015 3.199 5.923 8.174 11.001l9.417 9.14 6.219-2.37c27.009-10.663 56.149-27.588 75.517-43.668C470.723 432.607 494 407.388 494 403.664c0-2.031-6.397-8.463-16.525-16.587-9.062-7.447-17.769-14.895-19.545-16.587-2.31-2.201-3.732-2.539-5.153-1.185-1.422 1.354-4.62-.169-11.55-5.755-8.884-7.278-9.773-7.616-12.794-5.077-4.086 3.554-4.975 3.385-7.64-1.185-1.599-2.539-2.31-12.864-2.31-35.036 0-29.451-.355-31.99-4.798-43.161-4.264-11.17-6.929-22.341-9.417-39.775-.711-4.231-2.31-14.894-3.731-23.696-1.422-8.801-2.843-18.618-3.376-21.664-1.067-7.786-2.133-8.802-8.529-8.802-3.732 0-7.819 1.693-11.55 4.57-7.463 6.093-9.773 18.111-8.174 43.33.889 13.202.533 20.988-1.244 27.927-2.309 8.971-2.487 5.416-3.376-50.946l-.888-60.763-5.864-4.908-5.686-4.909-51.174.169c-28.074 0-52.24.508-53.661 1.016zm106.79 4.401c1.599 1.184 3.731 3.723 4.797 5.754 2.843 5.078 3.021 213.432.178 219.356-3.554 7.447-7.64 7.955-60.414 7.955h-49.752l-4.264-4.231c-2.488-2.201-4.443-5.924-4.443-8.124 0-7.109 7.108-7.956 64.501-7.956h52.773V163.151H241.684v42.653c0 23.357-.533 42.144-1.066 41.637-.533-.677-.888-16.926-.888-36.391 0-65.163-.356-59.408 4.62-63.978l4.264-4.232h51.174c37.492.17 51.885.677 54.017 2.201zm1.599 115.432v93.937H254.122l1.067-7.447c1.066-6.939.71-8.124-4.443-12.863-6.752-6.432-6.929-10.325-1.066-15.91 3.376-3.216 4.442-6.094 4.442-11.341 0-5.077-1.421-8.801-4.442-12.694-5.686-6.939-5.508-10.663.178-15.741 3.909-3.554 4.442-5.416 4.087-12.694-.356-6.601-1.422-9.309-4.62-11.678-4.087-3.047-4.087-3.386-4.087-45.361v-42.145h110.166v93.937zm-126.513-87.167c3.198 1.862 6.219 4.401 6.752 5.586.355 1.185.533 10.832.355 21.157l-.533 19.126-13.682-14.556c-11.372-11.848-13.859-15.572-13.859-19.972 0-6.094 2.31-9.817 7.996-12.695 4.975-2.708 6.219-2.539 12.971 1.354zm163.65 17.264c.888 2.201 2.843 13.372 4.442 25.05 4.975 35.036 8.173 50.946 12.971 65.164 4.975 14.048 6.041 30.974 4.264 60.594-.533 9.816-.177 12.355 3.199 16.417 1.954 2.709 3.731 5.755 3.731 6.771 0 1.015-16.169 19.126-35.893 40.283-19.723 21.157-36.07 38.759-36.425 39.098-1.6 2.2-46.554-30.805-67.877-49.931l-13.149-11.678 42.823-.847 43-.846 4.798-4.739 4.975-4.57 1.066-48.746c.889-43.329 1.244-49.253 4.265-55.347 3.02-5.923 3.553-10.663 3.553-36.39 0-32.497.711-35.036 10.306-40.621 7.285-4.231 8.174-4.231 9.951.338zm-159.208 56.194c9.417 3.892 17.946 13.54 17.946 20.479 0 7.786-5.686 13.372-13.682 13.372-7.107 0-23.454-12.187-24.698-18.111-1.422-6.939 1.244-12.186 7.463-15.063 7.463-3.555 6.041-3.555 12.971-.677zm7.996 44.514c8.529 6.601 11.55 12.186 9.95 18.449-1.421 5.247-8.706 10.832-14.215 10.832-5.508 0-22.566-13.371-23.81-18.618-1.777-6.601 1.6-13.71 7.819-16.249 6.929-2.877 10.661-1.692 20.256 5.586zm-.889 38.082c13.327 9.987 15.104 17.095 6.753 25.22-7.286 6.77-12.439 6.262-23.633-2.37-9.773-7.447-11.727-12.186-9.417-20.988 1.244-4.739 10.661-9.309 15.992-7.786 1.954.508 6.574 3.216 10.305 5.924zm195.989 34.19c1.244 1.354 4.62 4.062 7.108 5.924 4.264 3.216 4.442 3.893 2.132 6.601-3.021 3.216-70.186 75.319-79.604 85.305l-6.219 6.601-7.64-7.447-7.641-7.447 43-45.869c23.633-25.388 43.711-46.037 44.6-46.037.888 0 2.843 1.015 4.264 2.369zm23.1 15.741c1.954 1.693 8.884 7.447 15.458 12.863 6.575 5.417 11.906 11.171 11.906 12.864 0 2.877-22.744 26.573-37.67 39.098-8.529 7.109-8.529 7.109-13.327 4.231-2.843-1.692-3.909-2.031-2.665-.677 1.066 1.185 2.132 2.878 2.132 3.555 0 2.031-26.831 18.279-30.207 18.279-1.599 0-4.442-1.523-6.219-3.385-4.797-5.077-14.57-4.57-20.789 1.185-2.665 2.539-4.975 5.586-4.975 6.77 0 3.047-5.153 2.878-6.397-.338-1.599-3.724 39.269-47.223 42.467-45.361 1.066.677 1.422-.169.711-1.862-.888-2.2 2.843-7.108 13.504-18.448 7.996-8.633 17.769-19.126 21.678-23.696 7.641-8.802 9.24-9.309 14.393-5.078zm-66.1 89.536c1.599.677 3.732 2.539 4.62 4.232 1.599 2.708.711 3.554-6.397 6.601-9.24 4.062-13.149 3.554-13.149-1.862 0-7.447 7.286-11.679 14.926-8.971z" fill="#262424"/><path d="M247.015 140.64c-7.285 2.877-9.773 7.278-10.306 19.972-.355 6.94-1.244 12.694-1.777 12.694-.533 0-2.31-1.184-3.909-2.538-1.599-1.355-5.508-3.047-8.529-3.555-4.797-1.015-6.574-.169-11.905 4.909-4.442 4.231-6.219 7.447-6.219 11.34 0 8.463.888 9.647 28.075 36.728 3.02 3.216 3.909 5.924 3.909 13.71v9.648l-8.529-.508c-7.996-.508-9.062-.169-14.215 5.585-3.199 3.216-5.686 7.617-5.686 9.479 0 5.077 4.797 11.848 11.727 16.756 3.198 2.37 6.041 4.57 6.041 5.078 0 .677-2.665 2.031-6.041 3.046-7.285 2.539-12.616 11.51-10.839 18.788.533 2.708 4.442 7.616 8.351 11.171l7.286 6.093-5.153 3.046c-2.843 1.693-6.042 4.063-7.108 5.417-3.376 3.893-4.087 12.186-1.599 16.756 2.665 4.908 14.748 14.556 21.145 16.926 3.198 1.015 4.797 3.215 5.686 7.616 1.421 7.617 9.062 12.694 19.012 12.694 6.397 0 8.707 1.524 27.542 18.788 11.549 10.324 29.141 24.542 39.446 31.481 10.306 7.109 19.368 13.372 20.079 14.049.888.677.533 2.877-.888 4.908-2.133 3.385-1.6 4.231 6.396 11.002 4.798 4.062 8.174 8.124 7.463 9.14-.533 1.015 3.199 5.923 8.174 11.001l9.417 9.14 6.219-2.37c27.009-10.663 56.149-27.588 75.517-43.668C470.723 432.607 494 407.388 494 403.664c0-2.031-6.397-8.463-16.525-16.587-9.062-7.447-17.769-14.895-19.545-16.587-2.31-2.201-3.732-2.539-5.153-1.185-1.422 1.354-4.62-.169-11.55-5.755-8.884-7.278-9.773-7.616-12.794-5.077-4.086 3.554-4.975 3.385-7.64-1.185-1.599-2.539-2.31-12.864-2.31-35.036 0-29.451-.355-31.99-4.798-43.161-4.264-11.17-6.929-22.341-9.417-39.775-.711-4.231-2.31-14.894-3.731-23.696-1.422-8.801-2.843-18.618-3.376-21.664-1.067-7.786-2.133-8.802-8.529-8.802-3.732 0-7.819 1.693-11.55 4.57-7.463 6.093-9.773 18.111-8.174 43.33.889 13.202.533 20.988-1.244 27.927-2.309 8.971-2.487 5.416-3.376-50.946l-.888-60.763-5.864-4.908-5.686-4.909-51.174.169c-28.074 0-52.24.508-53.661 1.016zm106.79 4.401c1.599 1.184 3.731 3.723 4.797 5.754 2.843 5.078 3.021 213.432.178 219.356-3.554 7.447-7.64 7.955-60.414 7.955h-49.752l-4.264-4.231c-2.488-2.201-4.443-5.924-4.443-8.124 0-7.109 7.108-7.956 64.501-7.956h52.773V163.151H241.684v42.653c0 23.357-.533 42.144-1.066 41.637-.533-.677-.888-16.926-.888-36.391 0-65.163-.356-59.408 4.62-63.978l4.264-4.232h51.174c37.492.17 51.885.677 54.017 2.201zm1.599 115.432v93.937H254.122l1.067-7.447c1.066-6.939.71-8.124-4.443-12.863-6.752-6.432-6.929-10.325-1.066-15.91 3.376-3.216 4.442-6.094 4.442-11.341 0-5.077-1.421-8.801-4.442-12.694-5.686-6.939-5.508-10.663.178-15.741 3.909-3.554 4.442-5.416 4.087-12.694-.356-6.601-1.422-9.309-4.62-11.678-4.087-3.047-4.087-3.386-4.087-45.361v-42.145h110.166v93.937zm-126.513-87.167c3.198 1.862 6.219 4.401 6.752 5.586.355 1.185.533 10.832.355 21.157l-.533 19.126-13.682-14.556c-11.372-11.848-13.859-15.572-13.859-19.972 0-6.094 2.31-9.817 7.996-12.695 4.975-2.708 6.219-2.539 12.971 1.354zm163.65 17.264c.888 2.201 2.843 13.372 4.442 25.05 4.975 35.036 8.173 50.946 12.971 65.164 4.975 14.048 6.041 30.974 4.264 60.594-.533 9.816-.177 12.355 3.199 16.417 1.954 2.709 3.731 5.755 3.731 6.771 0 1.015-16.169 19.126-35.893 40.283-19.723 21.157-36.07 38.759-36.425 39.098-1.6 2.2-46.554-30.805-67.877-49.931l-13.149-11.678 42.823-.847 43-.846 4.798-4.739 4.975-4.57 1.066-48.746c.889-43.329 1.244-49.253 4.265-55.347 3.02-5.923 3.553-10.663 3.553-36.39 0-32.497.711-35.036 10.306-40.621 7.285-4.231 8.174-4.231 9.951.338zm-159.208 56.194c9.417 3.892 17.946 13.54 17.946 20.479 0 7.786-5.686 13.372-13.682 13.372-7.107 0-23.454-12.187-24.698-18.111-1.422-6.939 1.244-12.186 7.463-15.063 7.463-3.555 6.041-3.555 12.971-.677zm7.996 44.514c8.529 6.601 11.55 12.186 9.95 18.449-1.421 5.247-8.706 10.832-14.215 10.832-5.508 0-22.566-13.371-23.81-18.618-1.777-6.601 1.6-13.71 7.819-16.249 6.929-2.877 10.661-1.692 20.256 5.586zm-.889 38.082c13.327 9.987 15.104 17.095 6.753 25.22-7.286 6.77-12.439 6.262-23.633-2.37-9.773-7.447-11.727-12.186-9.417-20.988 1.244-4.739 10.661-9.309 15.992-7.786 1.954.508 6.574 3.216 10.305 5.924zm195.989 34.19c1.244 1.354 4.62 4.062 7.108 5.924 4.264 3.216 4.442 3.893 2.132 6.601-3.021 3.216-70.186 75.319-79.604 85.305l-6.219 6.601-7.64-7.447-7.641-7.447 43-45.869c23.633-25.388 43.711-46.037 44.6-46.037.888 0 2.843 1.015 4.264 2.369zm23.1 15.741c1.954 1.693 8.884 7.447 15.458 12.863 6.575 5.417 11.906 11.171 11.906 12.864 0 2.877-22.744 26.573-37.67 39.098-8.529 7.109-8.529 7.109-13.327 4.231-2.843-1.692-3.909-2.031-2.665-.677 1.066 1.185 2.132 2.878 2.132 3.555 0 2.031-26.831 18.279-30.207 18.279-1.599 0-4.442-1.523-6.219-3.385-4.797-5.077-14.57-4.57-20.789 1.185-2.665 2.539-4.975 5.586-4.975 6.77 0 3.047-5.153 2.878-6.397-.338-1.599-3.724 39.269-47.223 42.467-45.361 1.066.677 1.422-.169.711-1.862-.888-2.2 2.843-7.108 13.504-18.448 7.996-8.633 17.769-19.126 21.678-23.696 7.641-8.802 9.24-9.309 14.393-5.078zm-66.1 89.536c1.599.677 3.732 2.539 4.62 4.232 1.599 2.708.711 3.554-6.397 6.601-9.24 4.062-13.149 3.554-13.149-1.862 0-7.447 7.286-11.679 14.926-8.971z" fill="#D0CDFF" fill-opacity=".2"/><path d="M247.015 140.64c-7.285 2.877-9.773 7.278-10.306 19.972-.355 6.94-1.244 12.694-1.777 12.694-.533 0-2.31-1.184-3.909-2.538-1.599-1.355-5.508-3.047-8.529-3.555-4.797-1.015-6.574-.169-11.905 4.909-4.442 4.231-6.219 7.447-6.219 11.34 0 8.463.888 9.647 28.075 36.728 3.02 3.216 3.909 5.924 3.909 13.71v9.648l-8.529-.508c-7.996-.508-9.062-.169-14.215 5.585-3.199 3.216-5.686 7.617-5.686 9.479 0 5.077 4.797 11.848 11.727 16.756 3.198 2.37 6.041 4.57 6.041 5.078 0 .677-2.665 2.031-6.041 3.046-7.285 2.539-12.616 11.51-10.839 18.788.533 2.708 4.442 7.616 8.351 11.171l7.286 6.093-5.153 3.046c-2.843 1.693-6.042 4.063-7.108 5.417-3.376 3.893-4.087 12.186-1.599 16.756 2.665 4.908 14.748 14.556 21.145 16.926 3.198 1.015 4.797 3.215 5.686 7.616 1.421 7.617 9.062 12.694 19.012 12.694 6.397 0 8.707 1.524 27.542 18.788 11.549 10.324 29.141 24.542 39.446 31.481 10.306 7.109 19.368 13.372 20.079 14.049.888.677.533 2.877-.888 4.908-2.133 3.385-1.6 4.231 6.396 11.002 4.798 4.062 8.174 8.124 7.463 9.14-.533 1.015 3.199 5.923 8.174 11.001l9.417 9.14 6.219-2.37c27.009-10.663 56.149-27.588 75.517-43.668C470.723 432.607 494 407.388 494 403.664c0-2.031-6.397-8.463-16.525-16.587-9.062-7.447-17.769-14.895-19.545-16.587-2.31-2.201-3.732-2.539-5.153-1.185-1.422 1.354-4.62-.169-11.55-5.755-8.884-7.278-9.773-7.616-12.794-5.077-4.086 3.554-4.975 3.385-7.64-1.185-1.599-2.539-2.31-12.864-2.31-35.036 0-29.451-.355-31.99-4.798-43.161-4.264-11.17-6.929-22.341-9.417-39.775-.711-4.231-2.31-14.894-3.731-23.696-1.422-8.801-2.843-18.618-3.376-21.664-1.067-7.786-2.133-8.802-8.529-8.802-3.732 0-7.819 1.693-11.55 4.57-7.463 6.093-9.773 18.111-8.174 43.33.889 13.202.533 20.988-1.244 27.927-2.309 8.971-2.487 5.416-3.376-50.946l-.888-60.763-5.864-4.908-5.686-4.909-51.174.169c-28.074 0-52.24.508-53.661 1.016zm106.79 4.401c1.599 1.184 3.731 3.723 4.797 5.754 2.843 5.078 3.021 213.432.178 219.356-3.554 7.447-7.64 7.955-60.414 7.955h-49.752l-4.264-4.231c-2.488-2.201-4.443-5.924-4.443-8.124 0-7.109 7.108-7.956 64.501-7.956h52.773V163.151H241.684v42.653c0 23.357-.533 42.144-1.066 41.637-.533-.677-.888-16.926-.888-36.391 0-65.163-.356-59.408 4.62-63.978l4.264-4.232h51.174c37.492.17 51.885.677 54.017 2.201zm1.599 115.432v93.937H254.122l1.067-7.447c1.066-6.939.71-8.124-4.443-12.863-6.752-6.432-6.929-10.325-1.066-15.91 3.376-3.216 4.442-6.094 4.442-11.341 0-5.077-1.421-8.801-4.442-12.694-5.686-6.939-5.508-10.663.178-15.741 3.909-3.554 4.442-5.416 4.087-12.694-.356-6.601-1.422-9.309-4.62-11.678-4.087-3.047-4.087-3.386-4.087-45.361v-42.145h110.166v93.937zm-126.513-87.167c3.198 1.862 6.219 4.401 6.752 5.586.355 1.185.533 10.832.355 21.157l-.533 19.126-13.682-14.556c-11.372-11.848-13.859-15.572-13.859-19.972 0-6.094 2.31-9.817 7.996-12.695 4.975-2.708 6.219-2.539 12.971 1.354zm163.65 17.264c.888 2.201 2.843 13.372 4.442 25.05 4.975 35.036 8.173 50.946 12.971 65.164 4.975 14.048 6.041 30.974 4.264 60.594-.533 9.816-.177 12.355 3.199 16.417 1.954 2.709 3.731 5.755 3.731 6.771 0 1.015-16.169 19.126-35.893 40.283-19.723 21.157-36.07 38.759-36.425 39.098-1.6 2.2-46.554-30.805-67.877-49.931l-13.149-11.678 42.823-.847 43-.846 4.798-4.739 4.975-4.57 1.066-48.746c.889-43.329 1.244-49.253 4.265-55.347 3.02-5.923 3.553-10.663 3.553-36.39 0-32.497.711-35.036 10.306-40.621 7.285-4.231 8.174-4.231 9.951.338zm-159.208 56.194c9.417 3.892 17.946 13.54 17.946 20.479 0 7.786-5.686 13.372-13.682 13.372-7.107 0-23.454-12.187-24.698-18.111-1.422-6.939 1.244-12.186 7.463-15.063 7.463-3.555 6.041-3.555 12.971-.677zm7.996 44.514c8.529 6.601 11.55 12.186 9.95 18.449-1.421 5.247-8.706 10.832-14.215 10.832-5.508 0-22.566-13.371-23.81-18.618-1.777-6.601 1.6-13.71 7.819-16.249 6.929-2.877 10.661-1.692 20.256 5.586zm-.889 38.082c13.327 9.987 15.104 17.095 6.753 25.22-7.286 6.77-12.439 6.262-23.633-2.37-9.773-7.447-11.727-12.186-9.417-20.988 1.244-4.739 10.661-9.309 15.992-7.786 1.954.508 6.574 3.216 10.305 5.924zm195.989 34.19c1.244 1.354 4.62 4.062 7.108 5.924 4.264 3.216 4.442 3.893 2.132 6.601-3.021 3.216-70.186 75.319-79.604 85.305l-6.219 6.601-7.64-7.447-7.641-7.447 43-45.869c23.633-25.388 43.711-46.037 44.6-46.037.888 0 2.843 1.015 4.264 2.369zm23.1 15.741c1.954 1.693 8.884 7.447 15.458 12.863 6.575 5.417 11.906 11.171 11.906 12.864 0 2.877-22.744 26.573-37.67 39.098-8.529 7.109-8.529 7.109-13.327 4.231-2.843-1.692-3.909-2.031-2.665-.677 1.066 1.185 2.132 2.878 2.132 3.555 0 2.031-26.831 18.279-30.207 18.279-1.599 0-4.442-1.523-6.219-3.385-4.797-5.077-14.57-4.57-20.789 1.185-2.665 2.539-4.975 5.586-4.975 6.77 0 3.047-5.153 2.878-6.397-.338-1.599-3.724 39.269-47.223 42.467-45.361 1.066.677 1.422-.169.711-1.862-.888-2.2 2.843-7.108 13.504-18.448 7.996-8.633 17.769-19.126 21.678-23.696 7.641-8.802 9.24-9.309 14.393-5.078zm-66.1 89.536c1.599.677 3.732 2.539 4.62 4.232 1.599 2.708.711 3.554-6.397 6.601-9.24 4.062-13.149 3.554-13.149-1.862 0-7.447 7.286-11.679 14.926-8.971z" stroke="#000" stroke-width="2" mask="url(#b)"/><path d="M289.66 152.996c0 1.015 4.797 1.692 10.661 1.692s10.661-.677 10.661-1.692c0-1.016-4.797-1.693-10.661-1.693s-10.661.677-10.661 1.693z" fill="#262424"/><path d="M289.66 152.996c0 1.015 4.797 1.692 10.661 1.692s10.661-.677 10.661-1.692c0-1.016-4.797-1.693-10.661-1.693s-10.661.677-10.661 1.693z" fill="#D0CDFF" fill-opacity=".2"/><path d="M293.214 363.719c-2.843 3.386-.889 10.494 3.376 11.848 7.818 2.37 14.215-4.739 9.772-10.663-3.02-4.231-9.95-4.908-13.148-1.185zm11.194 2.878c1.244 3.554-.711 6.432-4.087 6.432-4.087 0-6.041-2.709-4.62-5.924 1.244-3.047 7.641-3.386 8.707-.508z" fill="#262424"/><path d="M293.214 363.719c-2.843 3.386-.889 10.494 3.376 11.848 7.818 2.37 14.215-4.739 9.772-10.663-3.02-4.231-9.95-4.908-13.148-1.185zm11.194 2.878c1.244 3.554-.711 6.432-4.087 6.432-4.087 0-6.041-2.709-4.62-5.924 1.244-3.047 7.641-3.386 8.707-.508z" fill="#D0CDFF" fill-opacity=".2"/><path d="m241.8 149.047 6.3-6.047h.9v20h-9v-8.372l.9-3.721.9-1.86z" fill="#CFCCFE"/><path d="m244.794 165.267 110.61.423-.444 189.99-102.17.423.888-16.503-10.217-14.386 9.329-13.118-2.666-14.386-6.219-9.31 3.554-8.462 6.219-11.848-3.998-11.848-7.107-8.463c.746-27.504 1.475-55.008 2.221-82.512z" fill="#262424" stroke="#000"/><path stroke="#fff" stroke-width="2" d="M250 175h20M251 196v-20M351 196v-20M351 348v-20M332 175h20M254 347h20M332 347h20"/><path d="m231 174 5.5 5 .5 13.5-1 28.5-26.5-29.5-1-1.5-.5-1.5-.5-2v-4l1-3.5 1-2 1.5-2 1.5-1.5 2-1 2-1 2.5-1 2.5-.5 2.5.5 3 1.5 4 2z" fill="#D0CDFF" stroke="#000"/><path d="m410 424 8-10.5 18.5-19.5 4-5 5.5-5.5 4.5-5.5 4-2 4 2.5 7 5.5 6 5.5 5.5 4 5.5 5.5 2.5 2.5 2.5 4-2.5 3.5-5.5 6.5-8 8.5-8 7.5-4.5 4.5-7 6-9 7.5-4 1-2-1.5-3.5-1 2.5 3.5-4 3-8 5-8 5-10 5-3.5-.5-4.5-3.5-7.5-3-8 2-6 4.5-3.5 7h-4.5l-2-2.5 2-4.5 4.5-5.5 5.5-6 12-13.5 13-12.5 6.5-4.5v-3z" fill="#484550" stroke="#484550" stroke-width="4"/><g clip-path="url(#c)"><path d="M311.349 222.545h-49.315c-1.57 0-3.075.557-4.185 1.549-1.11.991-1.733 2.335-1.733 3.737v47.573c0 1.402.623 2.747 1.733 3.738 1.11.991 2.615 1.548 4.185 1.548h76.932c1.57 0 3.075-.557 4.185-1.548 1.11-.991 1.733-2.336 1.733-3.738v-47.573c0-1.402-.623-2.746-1.733-3.737-1.11-.992-2.615-1.549-4.185-1.549h-29.589" fill="#FFD0C6"/><path d="M311.349 222.545h-49.315c-1.57 0-3.075.557-4.185 1.549-1.11.991-1.733 2.335-1.733 3.737v47.573c0 1.402.623 2.747 1.733 3.738 1.11.991 2.615 1.548 4.185 1.548h76.932c1.57 0 3.075-.557 4.185-1.548 1.11-.991 1.733-2.336 1.733-3.738v-47.573c0-1.402-.623-2.746-1.733-3.737-1.11-.992-2.615-1.549-4.185-1.549h-29.589" stroke="#FFD0C6" stroke-width="3.875" stroke-linecap="round" stroke-linejoin="round"/><path fill="#000" d="M255 229.954h91v6.716h-91z"/><path d="M286.457 251.78v11.752M288.704 251.78v11.752M291.512 251.78v11.752M310.611 252.339v11.753M328.586 252.339v11.753M331.395 252.339v11.753M325.216 252.339v11.753M300.5 252.339v11.753M294.321 251.78v6.156M322.407 252.339v6.156M315.667 252.339v6.156M307.241 252.339v6.156M297.13 257.936v6.156M319.037 257.936v6.156M303.87 257.936v6.156M337.012 258.495v6.156M334.204 252.339v6.156" stroke="#000" stroke-width="2" stroke-linecap="round"/></g><defs><clipPath id="a"><path fill="#fff" transform="translate(146 86)" d="M0 0h162v109H0z"/></clipPath><clipPath id="c"><path fill="#fff" transform="translate(255 221)" d="M0 0h91v61H0z"/></clipPath></defs></svg>