<svg viewBox="0 0 557 521" fill="none" xmlns="http://www.w3.org/2000/svg">
<path d="M547 256.5C547 396.931 425.128 511 274.5 511C123.872 511 2 396.931 2 256.5C2 116.069 123.872 2 274.5 2C425.128 2 547 116.069 547 256.5Z" fill="#D0CDFF" stroke="#7A46D1" stroke-width="4"/>
<g clip-path="url(#clip0_143_386)">
<path d="M248.315 94.7613H160.521C157.727 94.7613 155.048 95.7566 153.072 97.5279C151.096 99.2992 149.986 101.702 149.986 104.207V189.214C149.986 191.719 151.096 194.122 153.072 195.893C155.048 197.665 157.727 198.66 160.521 198.66H297.479C300.273 198.66 302.952 197.665 304.928 195.893C306.904 194.122 308.014 191.719 308.014 189.214V104.207C308.014 101.702 306.904 99.2992 304.928 97.5279C302.952 95.7566 300.273 94.7613 297.479 94.7613H244.803" fill="#FFD0C6"/>
<path d="M248.315 94.7613H160.521C157.727 94.7613 155.048 95.7566 153.072 97.5279C151.096 99.2992 149.986 101.702 149.986 104.207V189.214C149.986 191.719 151.096 194.122 153.072 195.893C155.048 197.665 157.727 198.66 160.521 198.66H297.479C300.273 198.66 302.952 197.665 304.928 195.893C306.904 194.122 308.014 191.719 308.014 189.214V104.207C308.014 101.702 306.904 99.2992 304.928 97.5279C302.952 95.7566 300.273 94.7613 297.479 94.7613H244.803" stroke="#FFD0C6" stroke-width="3.875" stroke-linecap="round" stroke-linejoin="round"/>
<path d="M245 146.5L249 143V163.5H242L240 163V157.5L240.5 154L241 151L242 149.5L243 148.5L245 146.5Z" fill="#CFCCFE"/>
<path d="M194.949 150.582C205.131 150.582 213.385 143.182 213.385 134.053C213.385 124.924 205.131 117.524 194.949 117.524C184.767 117.524 176.512 124.924 176.512 134.053C176.512 143.182 184.767 150.582 194.949 150.582Z" fill="white" stroke="black" stroke-width="3.875" stroke-linecap="round" stroke-linejoin="round"/>
<path d="M164.033 179.769C164.033 172.254 167.363 165.047 173.29 159.733C179.217 154.419 187.256 151.433 195.638 151.433C204.02 151.433 212.059 154.419 217.987 159.733C223.914 165.047 227.244 172.254 227.244 179.769H164.033Z" fill="white" stroke="black" stroke-width="3.875" stroke-linecap="round" stroke-linejoin="round"/>
<path d="M244.803 135.692H276.408" stroke="black" stroke-width="3.875" stroke-linecap="round" stroke-linejoin="round"/>
<path d="M244.803 154.582H286.943" stroke="black" stroke-width="3.875" stroke-linecap="round" stroke-linejoin="round"/>
<rect x="240" y="163" width="2" height="38" fill="#CFCCFE"/>
<rect x="249" y="142" width="40" height="22" fill="#CFCCFE"/>
<rect x="242" y="151" width="9" height="7" fill="#CFCCFE"/>
<rect x="288" y="143" width="24" height="21" fill="#CFCCFE"/>
</g>
<mask id="path-13-inside-1_143_386" fill="white">
<path d="M247.015 140.64C239.73 143.517 237.242 147.918 236.709 160.612C236.354 167.552 235.465 173.306 234.932 173.306C234.399 173.306 232.622 172.122 231.023 170.768C229.424 169.413 225.515 167.721 222.494 167.213C217.697 166.198 215.92 167.044 210.589 172.122C206.147 176.353 204.37 179.569 204.37 183.462C204.37 191.925 205.258 193.109 232.445 220.19C235.465 223.406 236.354 226.114 236.354 233.9V243.548L227.825 243.04C219.829 242.532 218.763 242.871 213.61 248.625C210.411 251.841 207.924 256.242 207.924 258.104C207.924 263.181 212.721 269.952 219.651 274.86C222.849 277.23 225.692 279.43 225.692 279.938C225.692 280.615 223.027 281.969 219.651 282.984C212.366 285.523 207.035 294.494 208.812 301.772C209.345 304.48 213.254 309.388 217.163 312.943L224.449 319.036L219.296 322.082C216.453 323.775 213.254 326.145 212.188 327.499C208.812 331.392 208.101 339.685 210.589 344.255C213.254 349.163 225.337 358.811 231.734 361.181C234.932 362.196 236.531 364.396 237.42 368.797C238.841 376.414 246.482 381.491 256.432 381.491C262.829 381.491 265.139 383.015 283.974 400.279C295.523 410.603 313.115 424.821 323.42 431.76C333.726 438.869 342.788 445.132 343.499 445.809C344.387 446.486 344.032 448.686 342.611 450.717C340.478 454.102 341.011 454.948 349.007 461.719C353.805 465.781 357.181 469.843 356.47 470.859C355.937 471.874 359.669 476.782 364.644 481.86L374.061 491L380.28 488.63C407.289 477.967 436.429 461.042 455.797 444.962C470.723 432.607 494 407.388 494 403.664C494 401.633 487.603 395.201 477.475 387.077C468.413 379.63 459.706 372.182 457.93 370.49C455.62 368.289 454.198 367.951 452.777 369.305C451.355 370.659 448.157 369.136 441.227 363.55C432.343 356.272 431.454 355.934 428.433 358.473C424.347 362.027 423.458 361.858 420.793 357.288C419.194 354.749 418.483 344.424 418.483 322.252C418.483 292.801 418.128 290.262 413.685 279.091C409.421 267.921 406.756 256.75 404.268 239.316C403.557 235.085 401.958 224.422 400.537 215.62C399.115 206.819 397.694 197.002 397.161 193.956C396.094 186.17 395.028 185.154 388.632 185.154C384.9 185.154 380.813 186.847 377.082 189.724C369.619 195.817 367.309 207.835 368.908 233.054C369.797 246.256 369.441 254.042 367.664 260.981C365.355 269.952 365.177 266.397 364.288 210.035L363.4 149.272L357.536 144.364L351.85 139.455L300.676 139.624C272.602 139.624 248.436 140.132 247.015 140.64ZM353.805 145.041C355.404 146.225 357.536 148.764 358.602 150.795C361.445 155.873 361.623 364.227 358.78 370.151C355.226 377.598 351.14 378.106 298.366 378.106H248.614L244.35 373.875C241.862 371.674 239.907 367.951 239.907 365.751C239.907 358.642 247.015 357.795 304.408 357.795H357.181V260.473V163.151H299.433H241.684V205.804C241.684 229.161 241.151 247.948 240.618 247.441C240.085 246.764 239.73 230.515 239.73 211.05C239.73 145.887 239.374 151.642 244.35 147.072L248.614 142.84H299.788C337.28 143.01 351.673 143.517 353.805 145.041ZM355.404 260.473V354.41H304.763H254.122L255.189 346.963C256.255 340.024 255.899 338.839 250.746 334.1C243.994 327.668 243.817 323.775 249.68 318.19C253.056 314.974 254.122 312.096 254.122 306.849C254.122 301.772 252.701 298.048 249.68 294.155C243.994 287.216 244.172 283.492 249.858 278.414C253.767 274.86 254.3 272.998 253.945 265.72C253.589 259.119 252.523 256.411 249.325 254.042C245.238 250.995 245.238 250.656 245.238 208.681V166.536H300.321H355.404V260.473ZM228.891 173.306C232.089 175.168 235.11 177.707 235.643 178.892C235.998 180.077 236.176 189.724 235.998 200.049L235.465 219.175L221.783 204.619C210.411 192.771 207.924 189.047 207.924 184.647C207.924 178.553 210.234 174.83 215.92 171.952C220.895 169.244 222.139 169.413 228.891 173.306ZM392.541 190.57C393.429 192.771 395.384 203.942 396.983 215.62C401.958 250.656 405.156 266.566 409.954 280.784C414.929 294.832 415.995 311.758 414.218 341.378C413.685 351.194 414.041 353.733 417.417 357.795C419.371 360.504 421.148 363.55 421.148 364.566C421.148 365.581 404.979 383.692 385.255 404.849C365.532 426.006 349.185 443.608 348.83 443.947C347.23 446.147 302.276 413.142 280.953 394.016L267.804 382.338L310.627 381.491L353.627 380.645L358.425 375.906L363.4 371.336L364.466 322.59C365.355 279.261 365.71 273.337 368.731 267.243C371.751 261.32 372.284 256.58 372.284 230.853C372.284 198.356 372.995 195.817 382.59 190.232C389.875 186.001 390.764 186.001 392.541 190.57ZM233.333 246.764C242.75 250.656 251.279 260.304 251.279 267.243C251.279 275.029 245.593 280.615 237.597 280.615C230.49 280.615 214.143 268.428 212.899 262.504C211.477 255.565 214.143 250.318 220.362 247.441C227.825 243.886 226.403 243.886 233.333 246.764ZM241.329 291.278C249.858 297.879 252.879 303.464 251.279 309.727C249.858 314.974 242.573 320.559 237.064 320.559C231.556 320.559 214.498 307.188 213.254 301.941C211.477 295.34 214.854 288.231 221.073 285.692C228.002 282.815 231.734 284 241.329 291.278ZM240.44 329.36C253.767 339.347 255.544 346.455 247.193 354.58C239.907 361.35 234.754 360.842 223.56 352.21C213.787 344.763 211.833 340.024 214.143 331.222C215.387 326.483 224.804 321.913 230.135 323.436C232.089 323.944 236.709 326.652 240.44 329.36ZM436.429 363.55C437.673 364.904 441.049 367.612 443.537 369.474C447.801 372.69 447.979 373.367 445.669 376.075C442.648 379.291 375.483 451.394 366.065 461.38L359.846 467.981L352.206 460.534L344.565 453.087L387.565 407.218C411.198 381.83 431.276 361.181 432.165 361.181C433.053 361.181 435.008 362.196 436.429 363.55ZM459.529 379.291C461.483 380.984 468.413 386.738 474.987 392.154C481.562 397.571 486.893 403.325 486.893 405.018C486.893 407.895 464.149 431.591 449.223 444.116C440.694 451.225 440.694 451.225 435.896 448.347C433.053 446.655 431.987 446.316 433.231 447.67C434.297 448.855 435.363 450.548 435.363 451.225C435.363 453.256 408.532 469.504 405.156 469.504C403.557 469.504 400.714 467.981 398.937 466.119C394.14 461.042 384.367 461.549 378.148 467.304C375.483 469.843 373.173 472.89 373.173 474.074C373.173 477.121 368.02 476.952 366.776 473.736C365.177 470.012 406.045 426.513 409.243 428.375C410.309 429.052 410.665 428.206 409.954 426.513C409.066 424.313 412.797 419.405 423.458 408.065C431.454 399.432 441.227 388.939 445.136 384.369C452.777 375.567 454.376 375.06 459.529 379.291ZM393.429 468.827C395.028 469.504 397.161 471.366 398.049 473.059C399.648 475.767 398.76 476.613 391.652 479.66C382.412 483.722 378.503 483.214 378.503 477.798C378.503 470.351 385.789 466.119 393.429 468.827Z"/>
</mask>
<path d="M247.015 140.64C239.73 143.517 237.242 147.918 236.709 160.612C236.354 167.552 235.465 173.306 234.932 173.306C234.399 173.306 232.622 172.122 231.023 170.768C229.424 169.413 225.515 167.721 222.494 167.213C217.697 166.198 215.92 167.044 210.589 172.122C206.147 176.353 204.37 179.569 204.37 183.462C204.37 191.925 205.258 193.109 232.445 220.19C235.465 223.406 236.354 226.114 236.354 233.9V243.548L227.825 243.04C219.829 242.532 218.763 242.871 213.61 248.625C210.411 251.841 207.924 256.242 207.924 258.104C207.924 263.181 212.721 269.952 219.651 274.86C222.849 277.23 225.692 279.43 225.692 279.938C225.692 280.615 223.027 281.969 219.651 282.984C212.366 285.523 207.035 294.494 208.812 301.772C209.345 304.48 213.254 309.388 217.163 312.943L224.449 319.036L219.296 322.082C216.453 323.775 213.254 326.145 212.188 327.499C208.812 331.392 208.101 339.685 210.589 344.255C213.254 349.163 225.337 358.811 231.734 361.181C234.932 362.196 236.531 364.396 237.42 368.797C238.841 376.414 246.482 381.491 256.432 381.491C262.829 381.491 265.139 383.015 283.974 400.279C295.523 410.603 313.115 424.821 323.42 431.76C333.726 438.869 342.788 445.132 343.499 445.809C344.387 446.486 344.032 448.686 342.611 450.717C340.478 454.102 341.011 454.948 349.007 461.719C353.805 465.781 357.181 469.843 356.47 470.859C355.937 471.874 359.669 476.782 364.644 481.86L374.061 491L380.28 488.63C407.289 477.967 436.429 461.042 455.797 444.962C470.723 432.607 494 407.388 494 403.664C494 401.633 487.603 395.201 477.475 387.077C468.413 379.63 459.706 372.182 457.93 370.49C455.62 368.289 454.198 367.951 452.777 369.305C451.355 370.659 448.157 369.136 441.227 363.55C432.343 356.272 431.454 355.934 428.433 358.473C424.347 362.027 423.458 361.858 420.793 357.288C419.194 354.749 418.483 344.424 418.483 322.252C418.483 292.801 418.128 290.262 413.685 279.091C409.421 267.921 406.756 256.75 404.268 239.316C403.557 235.085 401.958 224.422 400.537 215.62C399.115 206.819 397.694 197.002 397.161 193.956C396.094 186.17 395.028 185.154 388.632 185.154C384.9 185.154 380.813 186.847 377.082 189.724C369.619 195.817 367.309 207.835 368.908 233.054C369.797 246.256 369.441 254.042 367.664 260.981C365.355 269.952 365.177 266.397 364.288 210.035L363.4 149.272L357.536 144.364L351.85 139.455L300.676 139.624C272.602 139.624 248.436 140.132 247.015 140.64ZM353.805 145.041C355.404 146.225 357.536 148.764 358.602 150.795C361.445 155.873 361.623 364.227 358.78 370.151C355.226 377.598 351.14 378.106 298.366 378.106H248.614L244.35 373.875C241.862 371.674 239.907 367.951 239.907 365.751C239.907 358.642 247.015 357.795 304.408 357.795H357.181V260.473V163.151H299.433H241.684V205.804C241.684 229.161 241.151 247.948 240.618 247.441C240.085 246.764 239.73 230.515 239.73 211.05C239.73 145.887 239.374 151.642 244.35 147.072L248.614 142.84H299.788C337.28 143.01 351.673 143.517 353.805 145.041ZM355.404 260.473V354.41H304.763H254.122L255.189 346.963C256.255 340.024 255.899 338.839 250.746 334.1C243.994 327.668 243.817 323.775 249.68 318.19C253.056 314.974 254.122 312.096 254.122 306.849C254.122 301.772 252.701 298.048 249.68 294.155C243.994 287.216 244.172 283.492 249.858 278.414C253.767 274.86 254.3 272.998 253.945 265.72C253.589 259.119 252.523 256.411 249.325 254.042C245.238 250.995 245.238 250.656 245.238 208.681V166.536H300.321H355.404V260.473ZM228.891 173.306C232.089 175.168 235.11 177.707 235.643 178.892C235.998 180.077 236.176 189.724 235.998 200.049L235.465 219.175L221.783 204.619C210.411 192.771 207.924 189.047 207.924 184.647C207.924 178.553 210.234 174.83 215.92 171.952C220.895 169.244 222.139 169.413 228.891 173.306ZM392.541 190.57C393.429 192.771 395.384 203.942 396.983 215.62C401.958 250.656 405.156 266.566 409.954 280.784C414.929 294.832 415.995 311.758 414.218 341.378C413.685 351.194 414.041 353.733 417.417 357.795C419.371 360.504 421.148 363.55 421.148 364.566C421.148 365.581 404.979 383.692 385.255 404.849C365.532 426.006 349.185 443.608 348.83 443.947C347.23 446.147 302.276 413.142 280.953 394.016L267.804 382.338L310.627 381.491L353.627 380.645L358.425 375.906L363.4 371.336L364.466 322.59C365.355 279.261 365.71 273.337 368.731 267.243C371.751 261.32 372.284 256.58 372.284 230.853C372.284 198.356 372.995 195.817 382.59 190.232C389.875 186.001 390.764 186.001 392.541 190.57ZM233.333 246.764C242.75 250.656 251.279 260.304 251.279 267.243C251.279 275.029 245.593 280.615 237.597 280.615C230.49 280.615 214.143 268.428 212.899 262.504C211.477 255.565 214.143 250.318 220.362 247.441C227.825 243.886 226.403 243.886 233.333 246.764ZM241.329 291.278C249.858 297.879 252.879 303.464 251.279 309.727C249.858 314.974 242.573 320.559 237.064 320.559C231.556 320.559 214.498 307.188 213.254 301.941C211.477 295.34 214.854 288.231 221.073 285.692C228.002 282.815 231.734 284 241.329 291.278ZM240.44 329.36C253.767 339.347 255.544 346.455 247.193 354.58C239.907 361.35 234.754 360.842 223.56 352.21C213.787 344.763 211.833 340.024 214.143 331.222C215.387 326.483 224.804 321.913 230.135 323.436C232.089 323.944 236.709 326.652 240.44 329.36ZM436.429 363.55C437.673 364.904 441.049 367.612 443.537 369.474C447.801 372.69 447.979 373.367 445.669 376.075C442.648 379.291 375.483 451.394 366.065 461.38L359.846 467.981L352.206 460.534L344.565 453.087L387.565 407.218C411.198 381.83 431.276 361.181 432.165 361.181C433.053 361.181 435.008 362.196 436.429 363.55ZM459.529 379.291C461.483 380.984 468.413 386.738 474.987 392.154C481.562 397.571 486.893 403.325 486.893 405.018C486.893 407.895 464.149 431.591 449.223 444.116C440.694 451.225 440.694 451.225 435.896 448.347C433.053 446.655 431.987 446.316 433.231 447.67C434.297 448.855 435.363 450.548 435.363 451.225C435.363 453.256 408.532 469.504 405.156 469.504C403.557 469.504 400.714 467.981 398.937 466.119C394.14 461.042 384.367 461.549 378.148 467.304C375.483 469.843 373.173 472.89 373.173 474.074C373.173 477.121 368.02 476.952 366.776 473.736C365.177 470.012 406.045 426.513 409.243 428.375C410.309 429.052 410.665 428.206 409.954 426.513C409.066 424.313 412.797 419.405 423.458 408.065C431.454 399.432 441.227 388.939 445.136 384.369C452.777 375.567 454.376 375.06 459.529 379.291ZM393.429 468.827C395.028 469.504 397.161 471.366 398.049 473.059C399.648 475.767 398.76 476.613 391.652 479.66C382.412 483.722 378.503 483.214 378.503 477.798C378.503 470.351 385.789 466.119 393.429 468.827Z" fill="#262424"/>
<path d="M247.015 140.64C239.73 143.517 237.242 147.918 236.709 160.612C236.354 167.552 235.465 173.306 234.932 173.306C234.399 173.306 232.622 172.122 231.023 170.768C229.424 169.413 225.515 167.721 222.494 167.213C217.697 166.198 215.92 167.044 210.589 172.122C206.147 176.353 204.37 179.569 204.37 183.462C204.37 191.925 205.258 193.109 232.445 220.19C235.465 223.406 236.354 226.114 236.354 233.9V243.548L227.825 243.04C219.829 242.532 218.763 242.871 213.61 248.625C210.411 251.841 207.924 256.242 207.924 258.104C207.924 263.181 212.721 269.952 219.651 274.86C222.849 277.23 225.692 279.43 225.692 279.938C225.692 280.615 223.027 281.969 219.651 282.984C212.366 285.523 207.035 294.494 208.812 301.772C209.345 304.48 213.254 309.388 217.163 312.943L224.449 319.036L219.296 322.082C216.453 323.775 213.254 326.145 212.188 327.499C208.812 331.392 208.101 339.685 210.589 344.255C213.254 349.163 225.337 358.811 231.734 361.181C234.932 362.196 236.531 364.396 237.42 368.797C238.841 376.414 246.482 381.491 256.432 381.491C262.829 381.491 265.139 383.015 283.974 400.279C295.523 410.603 313.115 424.821 323.42 431.76C333.726 438.869 342.788 445.132 343.499 445.809C344.387 446.486 344.032 448.686 342.611 450.717C340.478 454.102 341.011 454.948 349.007 461.719C353.805 465.781 357.181 469.843 356.47 470.859C355.937 471.874 359.669 476.782 364.644 481.86L374.061 491L380.28 488.63C407.289 477.967 436.429 461.042 455.797 444.962C470.723 432.607 494 407.388 494 403.664C494 401.633 487.603 395.201 477.475 387.077C468.413 379.63 459.706 372.182 457.93 370.49C455.62 368.289 454.198 367.951 452.777 369.305C451.355 370.659 448.157 369.136 441.227 363.55C432.343 356.272 431.454 355.934 428.433 358.473C424.347 362.027 423.458 361.858 420.793 357.288C419.194 354.749 418.483 344.424 418.483 322.252C418.483 292.801 418.128 290.262 413.685 279.091C409.421 267.921 406.756 256.75 404.268 239.316C403.557 235.085 401.958 224.422 400.537 215.62C399.115 206.819 397.694 197.002 397.161 193.956C396.094 186.17 395.028 185.154 388.632 185.154C384.9 185.154 380.813 186.847 377.082 189.724C369.619 195.817 367.309 207.835 368.908 233.054C369.797 246.256 369.441 254.042 367.664 260.981C365.355 269.952 365.177 266.397 364.288 210.035L363.4 149.272L357.536 144.364L351.85 139.455L300.676 139.624C272.602 139.624 248.436 140.132 247.015 140.64ZM353.805 145.041C355.404 146.225 357.536 148.764 358.602 150.795C361.445 155.873 361.623 364.227 358.78 370.151C355.226 377.598 351.14 378.106 298.366 378.106H248.614L244.35 373.875C241.862 371.674 239.907 367.951 239.907 365.751C239.907 358.642 247.015 357.795 304.408 357.795H357.181V260.473V163.151H299.433H241.684V205.804C241.684 229.161 241.151 247.948 240.618 247.441C240.085 246.764 239.73 230.515 239.73 211.05C239.73 145.887 239.374 151.642 244.35 147.072L248.614 142.84H299.788C337.28 143.01 351.673 143.517 353.805 145.041ZM355.404 260.473V354.41H304.763H254.122L255.189 346.963C256.255 340.024 255.899 338.839 250.746 334.1C243.994 327.668 243.817 323.775 249.68 318.19C253.056 314.974 254.122 312.096 254.122 306.849C254.122 301.772 252.701 298.048 249.68 294.155C243.994 287.216 244.172 283.492 249.858 278.414C253.767 274.86 254.3 272.998 253.945 265.72C253.589 259.119 252.523 256.411 249.325 254.042C245.238 250.995 245.238 250.656 245.238 208.681V166.536H300.321H355.404V260.473ZM228.891 173.306C232.089 175.168 235.11 177.707 235.643 178.892C235.998 180.077 236.176 189.724 235.998 200.049L235.465 219.175L221.783 204.619C210.411 192.771 207.924 189.047 207.924 184.647C207.924 178.553 210.234 174.83 215.92 171.952C220.895 169.244 222.139 169.413 228.891 173.306ZM392.541 190.57C393.429 192.771 395.384 203.942 396.983 215.62C401.958 250.656 405.156 266.566 409.954 280.784C414.929 294.832 415.995 311.758 414.218 341.378C413.685 351.194 414.041 353.733 417.417 357.795C419.371 360.504 421.148 363.55 421.148 364.566C421.148 365.581 404.979 383.692 385.255 404.849C365.532 426.006 349.185 443.608 348.83 443.947C347.23 446.147 302.276 413.142 280.953 394.016L267.804 382.338L310.627 381.491L353.627 380.645L358.425 375.906L363.4 371.336L364.466 322.59C365.355 279.261 365.71 273.337 368.731 267.243C371.751 261.32 372.284 256.58 372.284 230.853C372.284 198.356 372.995 195.817 382.59 190.232C389.875 186.001 390.764 186.001 392.541 190.57ZM233.333 246.764C242.75 250.656 251.279 260.304 251.279 267.243C251.279 275.029 245.593 280.615 237.597 280.615C230.49 280.615 214.143 268.428 212.899 262.504C211.477 255.565 214.143 250.318 220.362 247.441C227.825 243.886 226.403 243.886 233.333 246.764ZM241.329 291.278C249.858 297.879 252.879 303.464 251.279 309.727C249.858 314.974 242.573 320.559 237.064 320.559C231.556 320.559 214.498 307.188 213.254 301.941C211.477 295.34 214.854 288.231 221.073 285.692C228.002 282.815 231.734 284 241.329 291.278ZM240.44 329.36C253.767 339.347 255.544 346.455 247.193 354.58C239.907 361.35 234.754 360.842 223.56 352.21C213.787 344.763 211.833 340.024 214.143 331.222C215.387 326.483 224.804 321.913 230.135 323.436C232.089 323.944 236.709 326.652 240.44 329.36ZM436.429 363.55C437.673 364.904 441.049 367.612 443.537 369.474C447.801 372.69 447.979 373.367 445.669 376.075C442.648 379.291 375.483 451.394 366.065 461.38L359.846 467.981L352.206 460.534L344.565 453.087L387.565 407.218C411.198 381.83 431.276 361.181 432.165 361.181C433.053 361.181 435.008 362.196 436.429 363.55ZM459.529 379.291C461.483 380.984 468.413 386.738 474.987 392.154C481.562 397.571 486.893 403.325 486.893 405.018C486.893 407.895 464.149 431.591 449.223 444.116C440.694 451.225 440.694 451.225 435.896 448.347C433.053 446.655 431.987 446.316 433.231 447.67C434.297 448.855 435.363 450.548 435.363 451.225C435.363 453.256 408.532 469.504 405.156 469.504C403.557 469.504 400.714 467.981 398.937 466.119C394.14 461.042 384.367 461.549 378.148 467.304C375.483 469.843 373.173 472.89 373.173 474.074C373.173 477.121 368.02 476.952 366.776 473.736C365.177 470.012 406.045 426.513 409.243 428.375C410.309 429.052 410.665 428.206 409.954 426.513C409.066 424.313 412.797 419.405 423.458 408.065C431.454 399.432 441.227 388.939 445.136 384.369C452.777 375.567 454.376 375.06 459.529 379.291ZM393.429 468.827C395.028 469.504 397.161 471.366 398.049 473.059C399.648 475.767 398.76 476.613 391.652 479.66C382.412 483.722 378.503 483.214 378.503 477.798C378.503 470.351 385.789 466.119 393.429 468.827Z" fill="#D0CDFF" fill-opacity="0.2"/>
<path d="M247.015 140.64C239.73 143.517 237.242 147.918 236.709 160.612C236.354 167.552 235.465 173.306 234.932 173.306C234.399 173.306 232.622 172.122 231.023 170.768C229.424 169.413 225.515 167.721 222.494 167.213C217.697 166.198 215.92 167.044 210.589 172.122C206.147 176.353 204.37 179.569 204.37 183.462C204.37 191.925 205.258 193.109 232.445 220.19C235.465 223.406 236.354 226.114 236.354 233.9V243.548L227.825 243.04C219.829 242.532 218.763 242.871 213.61 248.625C210.411 251.841 207.924 256.242 207.924 258.104C207.924 263.181 212.721 269.952 219.651 274.86C222.849 277.23 225.692 279.43 225.692 279.938C225.692 280.615 223.027 281.969 219.651 282.984C212.366 285.523 207.035 294.494 208.812 301.772C209.345 304.48 213.254 309.388 217.163 312.943L224.449 319.036L219.296 322.082C216.453 323.775 213.254 326.145 212.188 327.499C208.812 331.392 208.101 339.685 210.589 344.255C213.254 349.163 225.337 358.811 231.734 361.181C234.932 362.196 236.531 364.396 237.42 368.797C238.841 376.414 246.482 381.491 256.432 381.491C262.829 381.491 265.139 383.015 283.974 400.279C295.523 410.603 313.115 424.821 323.42 431.76C333.726 438.869 342.788 445.132 343.499 445.809C344.387 446.486 344.032 448.686 342.611 450.717C340.478 454.102 341.011 454.948 349.007 461.719C353.805 465.781 357.181 469.843 356.47 470.859C355.937 471.874 359.669 476.782 364.644 481.86L374.061 491L380.28 488.63C407.289 477.967 436.429 461.042 455.797 444.962C470.723 432.607 494 407.388 494 403.664C494 401.633 487.603 395.201 477.475 387.077C468.413 379.63 459.706 372.182 457.93 370.49C455.62 368.289 454.198 367.951 452.777 369.305C451.355 370.659 448.157 369.136 441.227 363.55C432.343 356.272 431.454 355.934 428.433 358.473C424.347 362.027 423.458 361.858 420.793 357.288C419.194 354.749 418.483 344.424 418.483 322.252C418.483 292.801 418.128 290.262 413.685 279.091C409.421 267.921 406.756 256.75 404.268 239.316C403.557 235.085 401.958 224.422 400.537 215.62C399.115 206.819 397.694 197.002 397.161 193.956C396.094 186.17 395.028 185.154 388.632 185.154C384.9 185.154 380.813 186.847 377.082 189.724C369.619 195.817 367.309 207.835 368.908 233.054C369.797 246.256 369.441 254.042 367.664 260.981C365.355 269.952 365.177 266.397 364.288 210.035L363.4 149.272L357.536 144.364L351.85 139.455L300.676 139.624C272.602 139.624 248.436 140.132 247.015 140.64ZM353.805 145.041C355.404 146.225 357.536 148.764 358.602 150.795C361.445 155.873 361.623 364.227 358.78 370.151C355.226 377.598 351.14 378.106 298.366 378.106H248.614L244.35 373.875C241.862 371.674 239.907 367.951 239.907 365.751C239.907 358.642 247.015 357.795 304.408 357.795H357.181V260.473V163.151H299.433H241.684V205.804C241.684 229.161 241.151 247.948 240.618 247.441C240.085 246.764 239.73 230.515 239.73 211.05C239.73 145.887 239.374 151.642 244.35 147.072L248.614 142.84H299.788C337.28 143.01 351.673 143.517 353.805 145.041ZM355.404 260.473V354.41H304.763H254.122L255.189 346.963C256.255 340.024 255.899 338.839 250.746 334.1C243.994 327.668 243.817 323.775 249.68 318.19C253.056 314.974 254.122 312.096 254.122 306.849C254.122 301.772 252.701 298.048 249.68 294.155C243.994 287.216 244.172 283.492 249.858 278.414C253.767 274.86 254.3 272.998 253.945 265.72C253.589 259.119 252.523 256.411 249.325 254.042C245.238 250.995 245.238 250.656 245.238 208.681V166.536H300.321H355.404V260.473ZM228.891 173.306C232.089 175.168 235.11 177.707 235.643 178.892C235.998 180.077 236.176 189.724 235.998 200.049L235.465 219.175L221.783 204.619C210.411 192.771 207.924 189.047 207.924 184.647C207.924 178.553 210.234 174.83 215.92 171.952C220.895 169.244 222.139 169.413 228.891 173.306ZM392.541 190.57C393.429 192.771 395.384 203.942 396.983 215.62C401.958 250.656 405.156 266.566 409.954 280.784C414.929 294.832 415.995 311.758 414.218 341.378C413.685 351.194 414.041 353.733 417.417 357.795C419.371 360.504 421.148 363.55 421.148 364.566C421.148 365.581 404.979 383.692 385.255 404.849C365.532 426.006 349.185 443.608 348.83 443.947C347.23 446.147 302.276 413.142 280.953 394.016L267.804 382.338L310.627 381.491L353.627 380.645L358.425 375.906L363.4 371.336L364.466 322.59C365.355 279.261 365.71 273.337 368.731 267.243C371.751 261.32 372.284 256.58 372.284 230.853C372.284 198.356 372.995 195.817 382.59 190.232C389.875 186.001 390.764 186.001 392.541 190.57ZM233.333 246.764C242.75 250.656 251.279 260.304 251.279 267.243C251.279 275.029 245.593 280.615 237.597 280.615C230.49 280.615 214.143 268.428 212.899 262.504C211.477 255.565 214.143 250.318 220.362 247.441C227.825 243.886 226.403 243.886 233.333 246.764ZM241.329 291.278C249.858 297.879 252.879 303.464 251.279 309.727C249.858 314.974 242.573 320.559 237.064 320.559C231.556 320.559 214.498 307.188 213.254 301.941C211.477 295.34 214.854 288.231 221.073 285.692C228.002 282.815 231.734 284 241.329 291.278ZM240.44 329.36C253.767 339.347 255.544 346.455 247.193 354.58C239.907 361.35 234.754 360.842 223.56 352.21C213.787 344.763 211.833 340.024 214.143 331.222C215.387 326.483 224.804 321.913 230.135 323.436C232.089 323.944 236.709 326.652 240.44 329.36ZM436.429 363.55C437.673 364.904 441.049 367.612 443.537 369.474C447.801 372.69 447.979 373.367 445.669 376.075C442.648 379.291 375.483 451.394 366.065 461.38L359.846 467.981L352.206 460.534L344.565 453.087L387.565 407.218C411.198 381.83 431.276 361.181 432.165 361.181C433.053 361.181 435.008 362.196 436.429 363.55ZM459.529 379.291C461.483 380.984 468.413 386.738 474.987 392.154C481.562 397.571 486.893 403.325 486.893 405.018C486.893 407.895 464.149 431.591 449.223 444.116C440.694 451.225 440.694 451.225 435.896 448.347C433.053 446.655 431.987 446.316 433.231 447.67C434.297 448.855 435.363 450.548 435.363 451.225C435.363 453.256 408.532 469.504 405.156 469.504C403.557 469.504 400.714 467.981 398.937 466.119C394.14 461.042 384.367 461.549 378.148 467.304C375.483 469.843 373.173 472.89 373.173 474.074C373.173 477.121 368.02 476.952 366.776 473.736C365.177 470.012 406.045 426.513 409.243 428.375C410.309 429.052 410.665 428.206 409.954 426.513C409.066 424.313 412.797 419.405 423.458 408.065C431.454 399.432 441.227 388.939 445.136 384.369C452.777 375.567 454.376 375.06 459.529 379.291ZM393.429 468.827C395.028 469.504 397.161 471.366 398.049 473.059C399.648 475.767 398.76 476.613 391.652 479.66C382.412 483.722 378.503 483.214 378.503 477.798C378.503 470.351 385.789 466.119 393.429 468.827Z" stroke="black" stroke-width="2" mask="url(#path-13-inside-1_143_386)"/>
<path d="M289.66 152.996C289.66 154.011 294.457 154.688 300.321 154.688C306.185 154.688 310.982 154.011 310.982 152.996C310.982 151.98 306.185 151.303 300.321 151.303C294.457 151.303 289.66 151.98 289.66 152.996Z" fill="#262424"/>
<path d="M289.66 152.996C289.66 154.011 294.457 154.688 300.321 154.688C306.185 154.688 310.982 154.011 310.982 152.996C310.982 151.98 306.185 151.303 300.321 151.303C294.457 151.303 289.66 151.98 289.66 152.996Z" fill="#D0CDFF" fill-opacity="0.2"/>
<path d="M293.214 363.719C290.371 367.105 292.325 374.213 296.59 375.567C304.408 377.937 310.805 370.828 306.362 364.904C303.342 360.673 296.412 359.996 293.214 363.719ZM304.408 366.597C305.652 370.151 303.697 373.029 300.321 373.029C296.234 373.029 294.28 370.32 295.701 367.105C296.945 364.058 303.342 363.719 304.408 366.597Z" fill="#262424"/>
<path d="M293.214 363.719C290.371 367.105 292.325 374.213 296.59 375.567C304.408 377.937 310.805 370.828 306.362 364.904C303.342 360.673 296.412 359.996 293.214 363.719ZM304.408 366.597C305.652 370.151 303.697 373.029 300.321 373.029C296.234 373.029 294.28 370.32 295.701 367.105C296.945 364.058 303.342 363.719 304.408 366.597Z" fill="#D0CDFF" fill-opacity="0.2"/>
<path d="M244.794 165.267L355.404 165.69L354.96 355.68L252.79 356.103L253.678 339.6L243.461 325.214L252.79 312.096L250.124 297.71L243.905 288.4L247.459 279.938L253.678 268.09L249.68 256.242L242.573 247.779C243.319 220.275 244.047 192.771 244.794 165.267Z" fill="#262424" stroke="black"/>
<line x1="250" y1="175" x2="270" y2="175" stroke="white" stroke-width="2"/>
<line x1="251" y1="196" x2="251" y2="176" stroke="white" stroke-width="2"/>
<line x1="351" y1="196" x2="351" y2="176" stroke="white" stroke-width="2"/>
<line x1="351" y1="348" x2="351" y2="328" stroke="white" stroke-width="2"/>
<line x1="332" y1="175" x2="352" y2="175" stroke="white" stroke-width="2"/>
<line x1="254" y1="347" x2="274" y2="347" stroke="white" stroke-width="2"/>
<line x1="332" y1="347" x2="352" y2="347" stroke="white" stroke-width="2"/>
<path d="M311.601 224.067H265.687C264.225 224.067 262.824 224.59 261.791 225.521C260.757 226.452 260.177 227.715 260.177 229.032V273.715C260.177 275.032 260.757 276.295 261.791 277.226C262.824 278.157 264.225 278.68 265.687 278.68H337.313C338.775 278.68 340.176 278.157 341.209 277.226C342.243 276.295 342.823 275.032 342.823 273.715V229.032C342.823 227.715 342.243 226.452 341.209 225.521C340.176 224.59 338.775 224.067 337.313 224.067H309.765" fill="#FFD0C6"/>
<path d="M311.601 224.067H265.687C264.225 224.067 262.824 224.59 261.791 225.521C260.757 226.452 260.177 227.715 260.177 229.032V273.715C260.177 275.032 260.757 276.295 261.791 277.226C262.824 278.157 264.225 278.68 265.687 278.68H337.313C338.775 278.68 340.176 278.157 341.209 277.226C342.243 276.295 342.823 275.032 342.823 273.715V229.032C342.823 227.715 342.243 226.452 341.209 225.521C340.176 224.59 338.775 224.067 337.313 224.067H309.765" stroke="#FFD0C6" stroke-width="3.875" stroke-linecap="round" stroke-linejoin="round"/>
<path d="M283.692 253.409C289.017 253.409 293.334 249.519 293.334 244.72C293.334 239.922 289.017 236.032 283.692 236.032C278.366 236.032 274.05 239.922 274.05 244.72C274.05 249.519 278.366 253.409 283.692 253.409Z" fill="white" stroke="black" stroke-width="2.88" stroke-linecap="round" stroke-linejoin="round"/>
<path d="M267.523 268.75C267.523 264.8 269.264 261.012 272.364 258.218C275.464 255.425 279.668 253.856 284.052 253.856C288.436 253.856 292.64 255.425 295.74 258.218C298.84 261.012 300.581 264.8 300.581 268.75H267.523Z" fill="white" stroke="black" stroke-width="2.88" stroke-linecap="round" stroke-linejoin="round"/>
<path d="M309.765 245.582H326.294" stroke="black" stroke-width="2.88" stroke-linecap="round" stroke-linejoin="round"/>
<path d="M309.765 255.511H331.804" stroke="black" stroke-width="2.88" stroke-linecap="round" stroke-linejoin="round"/>
<path d="M231 174L236.5 179L237 192.5L236 221L209.5 191.5L208.5 190L208 188.5L207.5 186.5V184.5V182.5L208.5 179L209.5 177L211 175L212.5 173.5L214.5 172.5L216.5 171.5L219 170.5L221.5 170L224 170.5L227 172L231 174Z" fill="#D0CDFF" stroke="black"/>
<path d="M410 424L418 413.5L436.5 394L440.5 389L446 383.5L450.5 378L454.5 376L458.5 378.5L465.5 384L471.5 389.5L477 393.5L482.5 399L485 401.5L487.5 405.5L485 409L479.5 415.5L471.5 424L463.5 431.5L459 436L452 442L443 449.5L439 450.5L437 449L433.5 448L436 451.5L432 454.5L424 459.5L416 464.5L406 469.5L402.5 469L398 465.5L390.5 462.5L382.5 464.5L376.5 469L373 476H368.5L366.5 473.5L368.5 469L373 463.5L378.5 457.5L390.5 444L403.5 431.5L410 427V424Z" fill="#484550" stroke="#484550" stroke-width="4"/>
<defs>
<clipPath id="clip0_143_386">
<rect width="162" height="109" fill="white" transform="translate(148 92)"/>
</clipPath>
</defs>
</svg>
