<svg class="risk-meter" viewBox="44.747 44.604 110.631 55.254" xmlns="http://www.w3.org/2000/svg">
    <defs>
        <filter id="gauge-center-shadow" height="130%">
            <feGaussianBlur in="SourceAlpha" stdDeviation="1"></feGaussianBlur>
            <feOffset dx="0" dy="-4" result="offsetblur"></feOffset>
            <feFlood flood-color="rgba(0,0,0,0.28)" result="color"></feFlood>
            <feComposite in="color" in2="offsetblur" operator="in" result="shadow"></feComposite>
            <feBlend in="SourceGraphic" in2="shadow" mode="normal"></feBlend>
        </filter>
    </defs>
    <circle cx="100" cy="100" r="45" fill="none" stroke="#E3C342" stroke-width="20" stroke-dasharray="141.3" stroke-dashoffset="141.3"></circle>
    <circle cx="100" cy="100" r="45" fill="none" stroke="#D1535C" stroke-width="20" stroke-dasharray="141.3" stroke-dashoffset="47.1"></circle>
    <circle cx="100" cy="100" r="45" fill="none" stroke="#6DAD81" stroke-width="20" stroke-dasharray="141.3" stroke-dashoffset="-47.1"></circle>
    <circle cx="100" cy="100" r="35" fill="#15222e" filter="url(#gauge-center-shadow)"></circle>
    <line class="needle" x1="100" y1="100" x2="100" y2="50" stroke="#15222e" stroke-width="2" stroke-linecap="round"></line>
    <g transform="matrix(1, 0, 0, 1, -0.042571, -2.603626)">
        <path fill-rule="evenodd" clip-rule="evenodd" d="M 96.563 83.844 L 104.249 83.844 L 104.249 83.299 L 95.986 83.299 C 95.986 83.567 96.206 83.844 96.563 83.844 Z" fill="#7B46D1" style=""></path>
        <path fill-rule="evenodd" clip-rule="evenodd" d="M 100.41 89.547 L 100.98 89.547 L 100.98 84.386 L 100.41 84.386 L 100.41 89.547 Z" fill="#7B46D1" style=""></path>
        <path fill-rule="evenodd" clip-rule="evenodd" d="M 99.269 89.005 C 99.269 89.344 99.568 89.548 99.839 89.548 L 99.839 84.386 L 99.269 84.386 L 99.269 89.005 Z" fill="#7B46D1" style=""></path>
        <path fill-rule="evenodd" clip-rule="evenodd" d="M 104.826 84.387 L 101.551 84.387 L 101.551 90.09 L 99.84 90.09 C 99.231 90.09 98.698 89.63 98.698 89.005 L 98.698 84.387 L 96.563 84.387 C 95.914 84.387 95.422 83.886 95.422 83.302 L 95.422 81.675 L 103.685 81.675 C 104.313 81.675 104.826 82.163 104.826 82.759 L 104.826 84.387 Z M 100.124 78.619 C 96.213 78.619 93.042 81.633 93.042 85.351 C 93.042 89.069 96.213 92.083 100.124 92.083 C 104.035 92.083 107.206 89.069 107.206 85.351 C 107.206 81.633 104.035 78.619 100.124 78.619 Z" fill="#7B46D1" style=""></path>
        <path fill-rule="evenodd" clip-rule="evenodd" d="M 103.685 82.217 L 95.992 82.217 L 95.992 82.759 L 104.255 82.759 C 104.255 82.469 104.01 82.217 103.685 82.217 Z" fill="#7B46D1" style=""></path>
    </g>
</svg>
