<svg viewBox="0 0 557 521" fill="none" xmlns="http://www.w3.org/2000/svg"><path d="M547 256.5C547 396.931 425.128 511 274.5 511S2 396.931 2 256.5C2 116.069 123.872 2 274.5 2S547 116.069 547 256.5z" fill="#D0CDFF" stroke="#7A46D1" stroke-width="4"/><g clip-path="url(#a)"><path fill="#FFD0C6" d="M133 55h184v174H133z"/><path d="M139.996 51.467c-4.981 1.04-9.071 3.7-11.588 7.443l-1.206 1.746-.158 36.673c-.105 36.09-.105 36.672.944 38.917.577 1.247 2.045 3.16 3.199 4.2l2.15 1.912-2.15 1.913c-1.154 1.039-2.622 2.952-3.199 4.199-1.049 2.246-1.049 2.828-.944 38.918l.158 36.673 1.206 1.746c1.73 2.578 4.142 4.615 7.131 5.987l2.674 1.206h172.513l2.674-1.206c2.989-1.372 5.401-3.409 7.132-5.987l1.206-1.746.157-36.673c.105-36.09.105-36.672-.944-38.918-.577-1.247-2.045-3.16-3.198-4.199l-2.15-1.913 2.15-1.912c1.153-1.04 2.569-2.953 3.198-4.158C322 134.043 322 133.169 322 98.077c0-35.093 0-35.966-1.049-38.211-1.52-3.16-4.614-5.78-8.809-7.401l-3.513-1.372-83.111-.083c-64.757-.042-83.634.041-85.522.457zm169.315 6.029c2.464.998 4.037 2.328 5.086 4.282.681 1.373.786 5.863.786 36.299 0 30.435-.105 34.926-.786 36.298-1.049 1.954-2.622 3.285-5.086 4.283-1.888.748-4.405.79-84.841.79-80.437 0-82.953-.042-84.841-.79-2.465-.998-4.038-2.329-5.086-4.283-.682-1.372-.787-5.863-.787-36.382 0-32.971.053-34.926.996-36.505 1.049-1.83 2.622-3.077 5.034-4.075 1.416-.624 9.911-.665 84.579-.707 80.593 0 83.058.041 84.946.79zm0 88.563c2.464.998 4.037 2.328 5.086 4.282.681 1.372.786 5.863.786 36.299 0 30.435-.105 34.926-.786 36.298-1.049 1.954-2.622 3.285-5.086 4.282-1.888.749-4.405.791-84.841.791-80.437 0-82.953-.042-84.841-.791-2.465-.997-4.038-2.328-5.086-4.282-.682-1.372-.787-5.863-.787-36.381 0-32.972.053-34.927.996-36.507 1.049-1.829 2.622-3.077 5.034-4.074 1.416-.624 9.911-.666 84.579-.707 80.593 0 83.058.041 84.946.79z" fill="#000"/><path d="M217.234 62.527c-20.817 2.994-35.972 18.17-34.556 34.718 1.049 12.058 9.806 22.536 23.124 27.65 2.937 1.123 6.974 2.37 8.967 2.744 4.876.957 14.525.957 19.244.042 19.978-3.867 33.244-17.837 32.248-33.928-.315-5.406-1.259-8.316-4.3-13.14-5.243-8.481-14.577-14.677-25.956-17.255-4.509-1.039-14.262-1.455-18.771-.831zm9.438 5.738c2.255 1.206 4.457 3.742 6.187 7.234 2.517 5.073 3.146 4.699-8.389 4.699-11.536 0-10.907.374-8.39-4.698 2.255-4.574 5.82-7.984 8.39-7.984.419 0 1.415.333 2.202.749zm-16.098 3.368c-.682 1.164-1.888 3.7-2.622 5.696-.734 1.996-1.415 3.7-1.468 3.784-.105.041-2.255.582-4.771 1.164-2.517.582-5.559 1.455-6.712 1.912-1.154.458-2.255.749-2.412.583-.525-.375 2.254-4.283 4.876-6.903 1.259-1.288 3.566-3.118 5.139-4.074 2.727-1.663 8.075-4.158 8.914-4.2.21 0-.21.915-.944 2.038zm29.521-1.04c3.881 1.539 7.971 4.158 10.855 6.86 2.831 2.662 5.977 6.903 5.401 7.319-.158.166-1.259-.125-2.413-.583-1.153-.457-4.194-1.33-6.712-1.912-2.516-.582-4.666-1.123-4.771-1.164-.052-.084-.734-1.788-1.468-3.784-.734-1.996-1.94-4.532-2.622-5.696-.734-1.123-1.206-2.038-1.049-2.038.158 0 1.416.458 2.779.998zm-4.09 15.634c.735.956 1.154 8.607.787 13.305-.315 4.116-.525 4.657-1.521 5.073-.734.333-4.404.499-10.801.499-6.398 0-10.068-.166-10.802-.499-.996-.416-1.206-.957-1.521-5.073-.367-4.532.053-12.349.734-13.222.524-.665 4.038-.832 13.896-.707 6.397.083 8.966.25 9.228.624zm-30.674 8.94c0 5.571-.158 8.107-.577 8.107-.944 0-6.135-1.497-8.495-2.453-2.831-1.123-5.82-3.243-6.449-4.532-1.259-2.578 3.251-5.821 11.169-8.025 2.359-.665 4.352-1.206 4.352-1.206v8.108zm45.671-6.03c5.663 1.955 9.176 4.99 8.127 7.152-.629 1.289-3.618 3.41-6.449 4.532-2.36.956-7.551 2.453-8.495 2.453-.419 0-.577-2.494-.577-8.066v-8.025l2.518.582c1.363.333 3.565.957 4.876 1.372zm-48.87 19.293 4.247.956.944 2.453c.524 1.373 1.626 3.867 2.464 5.572.84 1.663 1.469 3.16 1.311 3.243-.104.083-1.678-.457-3.513-1.206-4.666-1.954-11.168-7.193-13.685-11.06l-1.993-2.993 2.989 1.039c1.625.582 4.876 1.456 7.236 1.996zm52.96-.083c-2.57 3.908-9.071 9.147-13.738 11.101-1.835.749-3.409 1.289-3.566 1.164-.105-.083.367-1.205 1.101-2.536.734-1.289 1.731-3.7 2.307-5.322.525-1.663 1.311-3.118 1.678-3.285.42-.166 2.727-.79 5.192-1.372 2.464-.582 5.4-1.455 6.554-1.871 1.154-.457 2.15-.831 2.255-.831.105-.042-.734 1.33-1.783 2.952zm-21.499 5.031c-2.464 5.821-5.977 9.438-9.123 9.438-.997 0-2.203-.457-3.409-1.289-1.887-1.33-4.981-5.862-6.187-9.106l-.734-1.871h20.659l-1.206 2.828zM151.533 156.661c-2.989.832-5.034 2.204-6.187 4.158-1.101 1.788-1.154 2.162-.997 22.162l.158 20.332 1.468 1.787c1.049 1.206 2.307 2.08 4.195 2.787l2.726.997h22.286c14.734 0 23.019-.166 24.382-.457 2.727-.624 6.24-3.41 7.026-5.572.787-2.286.787-38.46 0-40.747-.786-2.162-4.299-4.948-7.026-5.571-3.146-.707-45.514-.582-48.031.124zm47.349 5.946c.892.624.944 1.788.944 19.792 0 21.829.263 20.664-4.299 20.664h-2.517v-6.32c0-7.151-.63-8.856-3.986-11.06l-1.782-1.164.891-1.455c1.154-1.871 1.521-5.738.682-8.066-.787-2.287-4.09-5.322-6.974-6.528-2.989-1.164-7.446-1.456-10.645-.582-3.46.914-5.925 2.578-7.813 5.28-1.992 2.911-2.202 7.068-.419 9.73l1.101 1.704-2.097 1.372c-3.199 2.121-3.566 3.244-3.566 10.645v6.444h-2.831c-4.772 0-4.51 1.081-4.51-20.664 0-18.295.053-18.877 1.049-19.667.996-.79 1.73-.832 23.439-.832 20.082 0 22.442.084 23.333.707zm-20.24 10.935c3.618 1.414 4.877 4.574 2.937 7.443-1.888 2.786-6.502 3.659-9.806 1.954-4.405-2.287-3.827-7.983.996-9.646 2.255-.749 3.304-.707 5.873.249zm6.24 16.84c1.259.956 1.311 1.206 1.311 6.86v5.821h-20.974v-5.945c0-3.244.209-6.113.419-6.362.944-1.123 2.779-1.372 10.225-1.414 7.551 0 7.813.042 9.019 1.04zM215.346 156.952l-1.363.832v6.653c0 6.07.105 6.694 1.048 7.442 1.049.832 1.731.832 44.518.832h43.522l.786-.915c.682-.748.839-2.245.839-7.443v-6.569l-1.363-.832c-1.416-.873-1.678-.873-43.994-.873-42.315 0-42.577 0-43.993.873zm82.534 7.651v2.703H220.799V161.9H297.88v2.703zM214.822 179.446c-1.153 1.331-1.048 2.537.367 3.576 1.154.874 1.626.915 12.847.915 10.959 0 11.693-.041 12.69-.832 1.31-1.039 1.363-2.993.104-3.866-.839-.624-2.569-.707-13.109-.707-11.902 0-12.112 0-12.899.914zM250.007 179.28c-1.206 1.04-1.101 2.828.158 3.825.996.791 1.73.832 26.742.832s25.745-.041 26.742-.832c1.311-1.039 1.363-2.993.105-3.866-.892-.624-3.513-.707-26.952-.707-24.488 0-26.008.041-26.795.748zM215.345 190.215c-1.626.998-1.783 2.37-.367 3.742.996.998 1.049.998 12.794.998 10.854 0 11.903-.083 12.899-.789 1.416-1.04 1.416-2.911-.052-3.992-1.101-.79-1.783-.832-12.532-.832-10.697 0-11.431.042-12.742.873zM250.268 190.008c-1.363.748-1.573 3.076-.367 4.074 1.311 1.04 3.356 1.123 21.604.998 18.929-.125 18.562-.083 19.296-2.495.262-.873.052-1.372-.996-2.162l-1.311-1.081h-18.51c-15.94 0-18.719.084-19.716.666zM215.031 201.4c-.576.458-1.048 1.289-1.048 1.871 0 .582.472 1.414 1.048 1.871.997.79 1.731.832 13.004.832 10.96 0 12.061-.083 12.847-.749 1.154-1.039 1.101-3.118-.052-3.949-.839-.624-2.517-.707-12.847-.707-11.221 0-11.955.041-12.952.831zM250.006 201.317c-1.153 1.039-1.101 3.118.053 3.95.838.624 2.779.707 16.255.707 14.629 0 15.363-.042 16.36-.832.577-.457 1.048-1.289 1.048-1.871 0-.582-.471-1.413-1.048-1.871-.997-.79-1.731-.831-16.413-.831-14.262 0-15.468.041-16.255.748zM297.671 213.25c-3.566 2.204-4.981 2.329-8.495.831-3.565-1.496-7.498-1.454-11.378.209-3.618 1.538-5.401 1.579-7.76.166-4.929-2.952-9.806-3.534-14.158-1.705-2.622 1.123-6.869 5.53-6.869 7.193 0 1.954 2.517 3.202 5.034 2.412.419-.125 1.52-1.165 2.464-2.287 2.779-3.451 4.562-3.701 9.229-1.206 5.191 2.745 9.596 2.952 14.472.707 2.989-1.414 3.828-1.414 7.184 0 5.191 2.121 10.329 1.331 15.101-2.37 2.412-1.913 2.884-3.576 1.311-4.657-1.993-1.372-2.989-1.247-6.135.707zM145.081 218.115c-1.153 1.289-1.049 2.661.21 3.659 1.049.831 1.73.831 30.307.831 28.473 0 29.312-.041 30.256-.831.472-.416.944-1.289.944-1.871 0-.582-.472-1.456-.944-1.871-.944-.79-1.783-.832-30.465-.832h-29.521l-.787.915z" fill="#000"/><path fill="#CFCCFE" d="M238 163h5v71h-5z"/></g><path fill="#CFCCFE" d="M240 165h2v38h-2zM244.556 146.756 249 143v22h-7.778l-2.222-.537v-5.902l.556-3.756.555-3.22 1.111-1.609 1.111-1.074 2.223-2.146zM249 143h40v22h-40zM289 143h33v22h-33z"/><mask id="b" fill="#fff"><path d="M247.015 140.64c-7.285 2.877-9.773 7.278-10.306 19.972-.355 6.94-1.244 12.694-1.777 12.694-.533 0-2.31-1.184-3.909-2.538-1.599-1.355-5.508-3.047-8.529-3.555-4.797-1.015-6.574-.169-11.905 4.909-4.442 4.231-6.219 7.447-6.219 11.34 0 8.463.888 9.647 28.075 36.728 3.02 3.216 3.909 5.924 3.909 13.71v9.648l-8.529-.508c-7.996-.508-9.062-.169-14.215 5.585-3.199 3.216-5.686 7.617-5.686 9.479 0 5.077 4.797 11.848 11.727 16.756 3.198 2.37 6.041 4.57 6.041 5.078 0 .677-2.665 2.031-6.041 3.046-7.285 2.539-12.616 11.51-10.839 18.788.533 2.708 4.442 7.616 8.351 11.171l7.286 6.093-5.153 3.046c-2.843 1.693-6.042 4.063-7.108 5.417-3.376 3.893-4.087 12.186-1.599 16.756 2.665 4.908 14.748 14.556 21.145 16.926 3.198 1.015 4.797 3.215 5.686 7.616 1.421 7.617 9.062 12.694 19.012 12.694 6.397 0 8.707 1.524 27.542 18.788 11.549 10.324 29.141 24.542 39.446 31.481 10.306 7.109 19.368 13.372 20.079 14.049.888.677.533 2.877-.888 4.908-2.133 3.385-1.6 4.231 6.396 11.002 4.798 4.062 8.174 8.124 7.463 9.14-.533 1.015 3.199 5.923 8.174 11.001l9.417 9.14 6.219-2.37c27.009-10.663 56.149-27.588 75.517-43.668C470.723 432.607 494 407.388 494 403.664c0-2.031-6.397-8.463-16.525-16.587-9.062-7.447-17.769-14.895-19.545-16.587-2.31-2.201-3.732-2.539-5.153-1.185-1.422 1.354-4.62-.169-11.55-5.755-8.884-7.278-9.773-7.616-12.794-5.077-4.086 3.554-4.975 3.385-7.64-1.185-1.599-2.539-2.31-12.864-2.31-35.036 0-29.451-.355-31.99-4.798-43.161-4.264-11.17-6.929-22.341-9.417-39.775-.711-4.231-2.31-14.894-3.731-23.696-1.422-8.801-2.843-18.618-3.376-21.664-1.067-7.786-2.133-8.802-8.529-8.802-3.732 0-7.819 1.693-11.55 4.57-7.463 6.093-9.773 18.111-8.174 43.33.889 13.202.533 20.988-1.244 27.927-2.309 8.971-2.487 5.416-3.376-50.946l-.888-60.763-5.864-4.908-5.686-4.909-51.174.169c-28.074 0-52.24.508-53.661 1.016zm106.79 4.401c1.599 1.184 3.731 3.723 4.797 5.754 2.843 5.078 3.021 213.432.178 219.356-3.554 7.447-7.64 7.955-60.414 7.955h-49.752l-4.264-4.231c-2.488-2.201-4.443-5.924-4.443-8.124 0-7.109 7.108-7.956 64.501-7.956h52.773V163.151H241.684v42.653c0 23.357-.533 42.144-1.066 41.637-.533-.678-.888-16.926-.888-36.391 0-65.163-.356-59.408 4.62-63.978l4.264-4.232h51.174c37.492.17 51.885.677 54.017 2.201zm1.599 115.432v93.937H254.122l1.067-7.447c1.066-6.939.71-8.124-4.443-12.863-6.752-6.432-6.929-10.325-1.066-15.91 3.376-3.216 4.442-6.094 4.442-11.341 0-5.077-1.421-8.801-4.442-12.694-5.686-6.939-5.508-10.663.178-15.741 3.909-3.554 4.442-5.416 4.087-12.694-.356-6.601-1.422-9.309-4.62-11.678-4.087-3.047-4.087-3.386-4.087-45.361v-42.145h110.166v93.937zm-126.513-87.167c3.198 1.862 6.219 4.401 6.752 5.586.355 1.185.533 10.832.355 21.157l-.533 19.126-13.682-14.556c-11.372-11.848-13.859-15.572-13.859-19.972 0-6.094 2.31-9.817 7.996-12.695 4.975-2.708 6.219-2.539 12.971 1.354zm163.65 17.264c.888 2.201 2.843 13.372 4.442 25.05 4.975 35.036 8.173 50.946 12.971 65.164 4.975 14.048 6.041 30.974 4.264 60.594-.533 9.816-.177 12.355 3.199 16.417 1.954 2.709 3.731 5.755 3.731 6.771 0 1.015-16.169 19.126-35.893 40.283-19.723 21.157-36.07 38.759-36.425 39.098-1.6 2.2-46.554-30.805-67.877-49.931l-13.149-11.678 42.823-.847 43-.846 4.798-4.739 4.975-4.57 1.066-48.746c.889-43.329 1.244-49.253 4.265-55.347 3.02-5.923 3.553-10.663 3.553-36.39 0-32.497.711-35.036 10.306-40.621 7.285-4.231 8.174-4.231 9.951.338zm-159.208 56.194c9.417 3.892 17.946 13.54 17.946 20.479 0 7.786-5.686 13.372-13.682 13.372-7.107 0-23.454-12.187-24.698-18.111-1.422-6.939 1.244-12.186 7.463-15.063 7.463-3.555 6.041-3.555 12.971-.677zm7.996 44.514c8.529 6.601 11.55 12.186 9.95 18.449-1.421 5.247-8.706 10.832-14.215 10.832-5.508 0-22.566-13.371-23.81-18.618-1.777-6.601 1.6-13.71 7.819-16.249 6.929-2.877 10.661-1.692 20.256 5.586zm-.889 38.082c13.327 9.987 15.104 17.095 6.753 25.22-7.286 6.77-12.439 6.262-23.633-2.37-9.773-7.447-11.727-12.186-9.417-20.988 1.244-4.739 10.661-9.309 15.992-7.786 1.954.508 6.574 3.216 10.305 5.924zm195.989 34.19c1.244 1.354 4.62 4.062 7.108 5.924 4.264 3.216 4.442 3.893 2.132 6.601-3.021 3.216-70.186 75.319-79.604 85.305l-6.219 6.601-7.64-7.447-7.641-7.447 43-45.869c23.633-25.388 43.711-46.037 44.6-46.037.888 0 2.843 1.015 4.264 2.369zm23.1 15.741c1.954 1.693 8.884 7.447 15.458 12.863 6.575 5.417 11.906 11.171 11.906 12.864 0 2.877-22.744 26.573-37.67 39.098-8.529 7.109-8.529 7.109-13.327 4.231-2.843-1.692-3.909-2.031-2.665-.677 1.066 1.185 2.132 2.878 2.132 3.555 0 2.031-26.83 18.279-30.207 18.279-1.599 0-4.442-1.523-6.219-3.385-4.797-5.077-14.57-4.57-20.789 1.185-2.665 2.539-4.975 5.586-4.975 6.77 0 3.047-5.153 2.878-6.397-.338-1.599-3.724 39.269-47.223 42.467-45.361 1.066.677 1.422-.169.711-1.862-.888-2.2 2.843-7.108 13.504-18.448 7.996-8.633 17.769-19.126 21.678-23.696 7.641-8.802 9.24-9.309 14.393-5.078zm-66.1 89.536c1.599.677 3.732 2.539 4.62 4.232 1.599 2.708.711 3.554-6.397 6.601-9.24 4.062-13.149 3.554-13.149-1.862 0-7.447 7.286-11.679 14.926-8.971z"/></mask><path d="M247.015 140.64c-7.285 2.877-9.773 7.278-10.306 19.972-.355 6.94-1.244 12.694-1.777 12.694-.533 0-2.31-1.184-3.909-2.538-1.599-1.355-5.508-3.047-8.529-3.555-4.797-1.015-6.574-.169-11.905 4.909-4.442 4.231-6.219 7.447-6.219 11.34 0 8.463.888 9.647 28.075 36.728 3.02 3.216 3.909 5.924 3.909 13.71v9.648l-8.529-.508c-7.996-.508-9.062-.169-14.215 5.585-3.199 3.216-5.686 7.617-5.686 9.479 0 5.077 4.797 11.848 11.727 16.756 3.198 2.37 6.041 4.57 6.041 5.078 0 .677-2.665 2.031-6.041 3.046-7.285 2.539-12.616 11.51-10.839 18.788.533 2.708 4.442 7.616 8.351 11.171l7.286 6.093-5.153 3.046c-2.843 1.693-6.042 4.063-7.108 5.417-3.376 3.893-4.087 12.186-1.599 16.756 2.665 4.908 14.748 14.556 21.145 16.926 3.198 1.015 4.797 3.215 5.686 7.616 1.421 7.617 9.062 12.694 19.012 12.694 6.397 0 8.707 1.524 27.542 18.788 11.549 10.324 29.141 24.542 39.446 31.481 10.306 7.109 19.368 13.372 20.079 14.049.888.677.533 2.877-.888 4.908-2.133 3.385-1.6 4.231 6.396 11.002 4.798 4.062 8.174 8.124 7.463 9.14-.533 1.015 3.199 5.923 8.174 11.001l9.417 9.14 6.219-2.37c27.009-10.663 56.149-27.588 75.517-43.668C470.723 432.607 494 407.388 494 403.664c0-2.031-6.397-8.463-16.525-16.587-9.062-7.447-17.769-14.895-19.545-16.587-2.31-2.201-3.732-2.539-5.153-1.185-1.422 1.354-4.62-.169-11.55-5.755-8.884-7.278-9.773-7.616-12.794-5.077-4.086 3.554-4.975 3.385-7.64-1.185-1.599-2.539-2.31-12.864-2.31-35.036 0-29.451-.355-31.99-4.798-43.161-4.264-11.17-6.929-22.341-9.417-39.775-.711-4.231-2.31-14.894-3.731-23.696-1.422-8.801-2.843-18.618-3.376-21.664-1.067-7.786-2.133-8.802-8.529-8.802-3.732 0-7.819 1.693-11.55 4.57-7.463 6.093-9.773 18.111-8.174 43.33.889 13.202.533 20.988-1.244 27.927-2.309 8.971-2.487 5.416-3.376-50.946l-.888-60.763-5.864-4.908-5.686-4.909-51.174.169c-28.074 0-52.24.508-53.661 1.016zm106.79 4.401c1.599 1.184 3.731 3.723 4.797 5.754 2.843 5.078 3.021 213.432.178 219.356-3.554 7.447-7.64 7.955-60.414 7.955h-49.752l-4.264-4.231c-2.488-2.201-4.443-5.924-4.443-8.124 0-7.109 7.108-7.956 64.501-7.956h52.773V163.151H241.684v42.653c0 23.357-.533 42.144-1.066 41.637-.533-.678-.888-16.926-.888-36.391 0-65.163-.356-59.408 4.62-63.978l4.264-4.232h51.174c37.492.17 51.885.677 54.017 2.201zm1.599 115.432v93.937H254.122l1.067-7.447c1.066-6.939.71-8.124-4.443-12.863-6.752-6.432-6.929-10.325-1.066-15.91 3.376-3.216 4.442-6.094 4.442-11.341 0-5.077-1.421-8.801-4.442-12.694-5.686-6.939-5.508-10.663.178-15.741 3.909-3.554 4.442-5.416 4.087-12.694-.356-6.601-1.422-9.309-4.62-11.678-4.087-3.047-4.087-3.386-4.087-45.361v-42.145h110.166v93.937zm-126.513-87.167c3.198 1.862 6.219 4.401 6.752 5.586.355 1.185.533 10.832.355 21.157l-.533 19.126-13.682-14.556c-11.372-11.848-13.859-15.572-13.859-19.972 0-6.094 2.31-9.817 7.996-12.695 4.975-2.708 6.219-2.539 12.971 1.354zm163.65 17.264c.888 2.201 2.843 13.372 4.442 25.05 4.975 35.036 8.173 50.946 12.971 65.164 4.975 14.048 6.041 30.974 4.264 60.594-.533 9.816-.177 12.355 3.199 16.417 1.954 2.709 3.731 5.755 3.731 6.771 0 1.015-16.169 19.126-35.893 40.283-19.723 21.157-36.07 38.759-36.425 39.098-1.6 2.2-46.554-30.805-67.877-49.931l-13.149-11.678 42.823-.847 43-.846 4.798-4.739 4.975-4.57 1.066-48.746c.889-43.329 1.244-49.253 4.265-55.347 3.02-5.923 3.553-10.663 3.553-36.39 0-32.497.711-35.036 10.306-40.621 7.285-4.231 8.174-4.231 9.951.338zm-159.208 56.194c9.417 3.892 17.946 13.54 17.946 20.479 0 7.786-5.686 13.372-13.682 13.372-7.107 0-23.454-12.187-24.698-18.111-1.422-6.939 1.244-12.186 7.463-15.063 7.463-3.555 6.041-3.555 12.971-.677zm7.996 44.514c8.529 6.601 11.55 12.186 9.95 18.449-1.421 5.247-8.706 10.832-14.215 10.832-5.508 0-22.566-13.371-23.81-18.618-1.777-6.601 1.6-13.71 7.819-16.249 6.929-2.877 10.661-1.692 20.256 5.586zm-.889 38.082c13.327 9.987 15.104 17.095 6.753 25.22-7.286 6.77-12.439 6.262-23.633-2.37-9.773-7.447-11.727-12.186-9.417-20.988 1.244-4.739 10.661-9.309 15.992-7.786 1.954.508 6.574 3.216 10.305 5.924zm195.989 34.19c1.244 1.354 4.62 4.062 7.108 5.924 4.264 3.216 4.442 3.893 2.132 6.601-3.021 3.216-70.186 75.319-79.604 85.305l-6.219 6.601-7.64-7.447-7.641-7.447 43-45.869c23.633-25.388 43.711-46.037 44.6-46.037.888 0 2.843 1.015 4.264 2.369zm23.1 15.741c1.954 1.693 8.884 7.447 15.458 12.863 6.575 5.417 11.906 11.171 11.906 12.864 0 2.877-22.744 26.573-37.67 39.098-8.529 7.109-8.529 7.109-13.327 4.231-2.843-1.692-3.909-2.031-2.665-.677 1.066 1.185 2.132 2.878 2.132 3.555 0 2.031-26.83 18.279-30.207 18.279-1.599 0-4.442-1.523-6.219-3.385-4.797-5.077-14.57-4.57-20.789 1.185-2.665 2.539-4.975 5.586-4.975 6.77 0 3.047-5.153 2.878-6.397-.338-1.599-3.724 39.269-47.223 42.467-45.361 1.066.677 1.422-.169.711-1.862-.888-2.2 2.843-7.108 13.504-18.448 7.996-8.633 17.769-19.126 21.678-23.696 7.641-8.802 9.24-9.309 14.393-5.078zm-66.1 89.536c1.599.677 3.732 2.539 4.62 4.232 1.599 2.708.711 3.554-6.397 6.601-9.24 4.062-13.149 3.554-13.149-1.862 0-7.447 7.286-11.679 14.926-8.971z" fill="#262424"/><path d="M247.015 140.64c-7.285 2.877-9.773 7.278-10.306 19.972-.355 6.94-1.244 12.694-1.777 12.694-.533 0-2.31-1.184-3.909-2.538-1.599-1.355-5.508-3.047-8.529-3.555-4.797-1.015-6.574-.169-11.905 4.909-4.442 4.231-6.219 7.447-6.219 11.34 0 8.463.888 9.647 28.075 36.728 3.02 3.216 3.909 5.924 3.909 13.71v9.648l-8.529-.508c-7.996-.508-9.062-.169-14.215 5.585-3.199 3.216-5.686 7.617-5.686 9.479 0 5.077 4.797 11.848 11.727 16.756 3.198 2.37 6.041 4.57 6.041 5.078 0 .677-2.665 2.031-6.041 3.046-7.285 2.539-12.616 11.51-10.839 18.788.533 2.708 4.442 7.616 8.351 11.171l7.286 6.093-5.153 3.046c-2.843 1.693-6.042 4.063-7.108 5.417-3.376 3.893-4.087 12.186-1.599 16.756 2.665 4.908 14.748 14.556 21.145 16.926 3.198 1.015 4.797 3.215 5.686 7.616 1.421 7.617 9.062 12.694 19.012 12.694 6.397 0 8.707 1.524 27.542 18.788 11.549 10.324 29.141 24.542 39.446 31.481 10.306 7.109 19.368 13.372 20.079 14.049.888.677.533 2.877-.888 4.908-2.133 3.385-1.6 4.231 6.396 11.002 4.798 4.062 8.174 8.124 7.463 9.14-.533 1.015 3.199 5.923 8.174 11.001l9.417 9.14 6.219-2.37c27.009-10.663 56.149-27.588 75.517-43.668C470.723 432.607 494 407.388 494 403.664c0-2.031-6.397-8.463-16.525-16.587-9.062-7.447-17.769-14.895-19.545-16.587-2.31-2.201-3.732-2.539-5.153-1.185-1.422 1.354-4.62-.169-11.55-5.755-8.884-7.278-9.773-7.616-12.794-5.077-4.086 3.554-4.975 3.385-7.64-1.185-1.599-2.539-2.31-12.864-2.31-35.036 0-29.451-.355-31.99-4.798-43.161-4.264-11.17-6.929-22.341-9.417-39.775-.711-4.231-2.31-14.894-3.731-23.696-1.422-8.801-2.843-18.618-3.376-21.664-1.067-7.786-2.133-8.802-8.529-8.802-3.732 0-7.819 1.693-11.55 4.57-7.463 6.093-9.773 18.111-8.174 43.33.889 13.202.533 20.988-1.244 27.927-2.309 8.971-2.487 5.416-3.376-50.946l-.888-60.763-5.864-4.908-5.686-4.909-51.174.169c-28.074 0-52.24.508-53.661 1.016zm106.79 4.401c1.599 1.184 3.731 3.723 4.797 5.754 2.843 5.078 3.021 213.432.178 219.356-3.554 7.447-7.64 7.955-60.414 7.955h-49.752l-4.264-4.231c-2.488-2.201-4.443-5.924-4.443-8.124 0-7.109 7.108-7.956 64.501-7.956h52.773V163.151H241.684v42.653c0 23.357-.533 42.144-1.066 41.637-.533-.678-.888-16.926-.888-36.391 0-65.163-.356-59.408 4.62-63.978l4.264-4.232h51.174c37.492.17 51.885.677 54.017 2.201zm1.599 115.432v93.937H254.122l1.067-7.447c1.066-6.939.71-8.124-4.443-12.863-6.752-6.432-6.929-10.325-1.066-15.91 3.376-3.216 4.442-6.094 4.442-11.341 0-5.077-1.421-8.801-4.442-12.694-5.686-6.939-5.508-10.663.178-15.741 3.909-3.554 4.442-5.416 4.087-12.694-.356-6.601-1.422-9.309-4.62-11.678-4.087-3.047-4.087-3.386-4.087-45.361v-42.145h110.166v93.937zm-126.513-87.167c3.198 1.862 6.219 4.401 6.752 5.586.355 1.185.533 10.832.355 21.157l-.533 19.126-13.682-14.556c-11.372-11.848-13.859-15.572-13.859-19.972 0-6.094 2.31-9.817 7.996-12.695 4.975-2.708 6.219-2.539 12.971 1.354zm163.65 17.264c.888 2.201 2.843 13.372 4.442 25.05 4.975 35.036 8.173 50.946 12.971 65.164 4.975 14.048 6.041 30.974 4.264 60.594-.533 9.816-.177 12.355 3.199 16.417 1.954 2.709 3.731 5.755 3.731 6.771 0 1.015-16.169 19.126-35.893 40.283-19.723 21.157-36.07 38.759-36.425 39.098-1.6 2.2-46.554-30.805-67.877-49.931l-13.149-11.678 42.823-.847 43-.846 4.798-4.739 4.975-4.57 1.066-48.746c.889-43.329 1.244-49.253 4.265-55.347 3.02-5.923 3.553-10.663 3.553-36.39 0-32.497.711-35.036 10.306-40.621 7.285-4.231 8.174-4.231 9.951.338zm-159.208 56.194c9.417 3.892 17.946 13.54 17.946 20.479 0 7.786-5.686 13.372-13.682 13.372-7.107 0-23.454-12.187-24.698-18.111-1.422-6.939 1.244-12.186 7.463-15.063 7.463-3.555 6.041-3.555 12.971-.677zm7.996 44.514c8.529 6.601 11.55 12.186 9.95 18.449-1.421 5.247-8.706 10.832-14.215 10.832-5.508 0-22.566-13.371-23.81-18.618-1.777-6.601 1.6-13.71 7.819-16.249 6.929-2.877 10.661-1.692 20.256 5.586zm-.889 38.082c13.327 9.987 15.104 17.095 6.753 25.22-7.286 6.77-12.439 6.262-23.633-2.37-9.773-7.447-11.727-12.186-9.417-20.988 1.244-4.739 10.661-9.309 15.992-7.786 1.954.508 6.574 3.216 10.305 5.924zm195.989 34.19c1.244 1.354 4.62 4.062 7.108 5.924 4.264 3.216 4.442 3.893 2.132 6.601-3.021 3.216-70.186 75.319-79.604 85.305l-6.219 6.601-7.64-7.447-7.641-7.447 43-45.869c23.633-25.388 43.711-46.037 44.6-46.037.888 0 2.843 1.015 4.264 2.369zm23.1 15.741c1.954 1.693 8.884 7.447 15.458 12.863 6.575 5.417 11.906 11.171 11.906 12.864 0 2.877-22.744 26.573-37.67 39.098-8.529 7.109-8.529 7.109-13.327 4.231-2.843-1.692-3.909-2.031-2.665-.677 1.066 1.185 2.132 2.878 2.132 3.555 0 2.031-26.83 18.279-30.207 18.279-1.599 0-4.442-1.523-6.219-3.385-4.797-5.077-14.57-4.57-20.789 1.185-2.665 2.539-4.975 5.586-4.975 6.77 0 3.047-5.153 2.878-6.397-.338-1.599-3.724 39.269-47.223 42.467-45.361 1.066.677 1.422-.169.711-1.862-.888-2.2 2.843-7.108 13.504-18.448 7.996-8.633 17.769-19.126 21.678-23.696 7.641-8.802 9.24-9.309 14.393-5.078zm-66.1 89.536c1.599.677 3.732 2.539 4.62 4.232 1.599 2.708.711 3.554-6.397 6.601-9.24 4.062-13.149 3.554-13.149-1.862 0-7.447 7.286-11.679 14.926-8.971z" fill="#D0CDFF" fill-opacity=".2"/><path d="M247.015 140.64c-7.285 2.877-9.773 7.278-10.306 19.972-.355 6.94-1.244 12.694-1.777 12.694-.533 0-2.31-1.184-3.909-2.538-1.599-1.355-5.508-3.047-8.529-3.555-4.797-1.015-6.574-.169-11.905 4.909-4.442 4.231-6.219 7.447-6.219 11.34 0 8.463.888 9.647 28.075 36.728 3.02 3.216 3.909 5.924 3.909 13.71v9.648l-8.529-.508c-7.996-.508-9.062-.169-14.215 5.585-3.199 3.216-5.686 7.617-5.686 9.479 0 5.077 4.797 11.848 11.727 16.756 3.198 2.37 6.041 4.57 6.041 5.078 0 .677-2.665 2.031-6.041 3.046-7.285 2.539-12.616 11.51-10.839 18.788.533 2.708 4.442 7.616 8.351 11.171l7.286 6.093-5.153 3.046c-2.843 1.693-6.042 4.063-7.108 5.417-3.376 3.893-4.087 12.186-1.599 16.756 2.665 4.908 14.748 14.556 21.145 16.926 3.198 1.015 4.797 3.215 5.686 7.616 1.421 7.617 9.062 12.694 19.012 12.694 6.397 0 8.707 1.524 27.542 18.788 11.549 10.324 29.141 24.542 39.446 31.481 10.306 7.109 19.368 13.372 20.079 14.049.888.677.533 2.877-.888 4.908-2.133 3.385-1.6 4.231 6.396 11.002 4.798 4.062 8.174 8.124 7.463 9.14-.533 1.015 3.199 5.923 8.174 11.001l9.417 9.14 6.219-2.37c27.009-10.663 56.149-27.588 75.517-43.668C470.723 432.607 494 407.388 494 403.664c0-2.031-6.397-8.463-16.525-16.587-9.062-7.447-17.769-14.895-19.545-16.587-2.31-2.201-3.732-2.539-5.153-1.185-1.422 1.354-4.62-.169-11.55-5.755-8.884-7.278-9.773-7.616-12.794-5.077-4.086 3.554-4.975 3.385-7.64-1.185-1.599-2.539-2.31-12.864-2.31-35.036 0-29.451-.355-31.99-4.798-43.161-4.264-11.17-6.929-22.341-9.417-39.775-.711-4.231-2.31-14.894-3.731-23.696-1.422-8.801-2.843-18.618-3.376-21.664-1.067-7.786-2.133-8.802-8.529-8.802-3.732 0-7.819 1.693-11.55 4.57-7.463 6.093-9.773 18.111-8.174 43.33.889 13.202.533 20.988-1.244 27.927-2.309 8.971-2.487 5.416-3.376-50.946l-.888-60.763-5.864-4.908-5.686-4.909-51.174.169c-28.074 0-52.24.508-53.661 1.016zm106.79 4.401c1.599 1.184 3.731 3.723 4.797 5.754 2.843 5.078 3.021 213.432.178 219.356-3.554 7.447-7.64 7.955-60.414 7.955h-49.752l-4.264-4.231c-2.488-2.201-4.443-5.924-4.443-8.124 0-7.109 7.108-7.956 64.501-7.956h52.773V163.151H241.684v42.653c0 23.357-.533 42.144-1.066 41.637-.533-.678-.888-16.926-.888-36.391 0-65.163-.356-59.408 4.62-63.978l4.264-4.232h51.174c37.492.17 51.885.677 54.017 2.201zm1.599 115.432v93.937H254.122l1.067-7.447c1.066-6.939.71-8.124-4.443-12.863-6.752-6.432-6.929-10.325-1.066-15.91 3.376-3.216 4.442-6.094 4.442-11.341 0-5.077-1.421-8.801-4.442-12.694-5.686-6.939-5.508-10.663.178-15.741 3.909-3.554 4.442-5.416 4.087-12.694-.356-6.601-1.422-9.309-4.62-11.678-4.087-3.047-4.087-3.386-4.087-45.361v-42.145h110.166v93.937zm-126.513-87.167c3.198 1.862 6.219 4.401 6.752 5.586.355 1.185.533 10.832.355 21.157l-.533 19.126-13.682-14.556c-11.372-11.848-13.859-15.572-13.859-19.972 0-6.094 2.31-9.817 7.996-12.695 4.975-2.708 6.219-2.539 12.971 1.354zm163.65 17.264c.888 2.201 2.843 13.372 4.442 25.05 4.975 35.036 8.173 50.946 12.971 65.164 4.975 14.048 6.041 30.974 4.264 60.594-.533 9.816-.177 12.355 3.199 16.417 1.954 2.709 3.731 5.755 3.731 6.771 0 1.015-16.169 19.126-35.893 40.283-19.723 21.157-36.07 38.759-36.425 39.098-1.6 2.2-46.554-30.805-67.877-49.931l-13.149-11.678 42.823-.847 43-.846 4.798-4.739 4.975-4.57 1.066-48.746c.889-43.329 1.244-49.253 4.265-55.347 3.02-5.923 3.553-10.663 3.553-36.39 0-32.497.711-35.036 10.306-40.621 7.285-4.231 8.174-4.231 9.951.338zm-159.208 56.194c9.417 3.892 17.946 13.54 17.946 20.479 0 7.786-5.686 13.372-13.682 13.372-7.107 0-23.454-12.187-24.698-18.111-1.422-6.939 1.244-12.186 7.463-15.063 7.463-3.555 6.041-3.555 12.971-.677zm7.996 44.514c8.529 6.601 11.55 12.186 9.95 18.449-1.421 5.247-8.706 10.832-14.215 10.832-5.508 0-22.566-13.371-23.81-18.618-1.777-6.601 1.6-13.71 7.819-16.249 6.929-2.877 10.661-1.692 20.256 5.586zm-.889 38.082c13.327 9.987 15.104 17.095 6.753 25.22-7.286 6.77-12.439 6.262-23.633-2.37-9.773-7.447-11.727-12.186-9.417-20.988 1.244-4.739 10.661-9.309 15.992-7.786 1.954.508 6.574 3.216 10.305 5.924zm195.989 34.19c1.244 1.354 4.62 4.062 7.108 5.924 4.264 3.216 4.442 3.893 2.132 6.601-3.021 3.216-70.186 75.319-79.604 85.305l-6.219 6.601-7.64-7.447-7.641-7.447 43-45.869c23.633-25.388 43.711-46.037 44.6-46.037.888 0 2.843 1.015 4.264 2.369zm23.1 15.741c1.954 1.693 8.884 7.447 15.458 12.863 6.575 5.417 11.906 11.171 11.906 12.864 0 2.877-22.744 26.573-37.67 39.098-8.529 7.109-8.529 7.109-13.327 4.231-2.843-1.692-3.909-2.031-2.665-.677 1.066 1.185 2.132 2.878 2.132 3.555 0 2.031-26.83 18.279-30.207 18.279-1.599 0-4.442-1.523-6.219-3.385-4.797-5.077-14.57-4.57-20.789 1.185-2.665 2.539-4.975 5.586-4.975 6.77 0 3.047-5.153 2.878-6.397-.338-1.599-3.724 39.269-47.223 42.467-45.361 1.066.677 1.422-.169.711-1.862-.888-2.2 2.843-7.108 13.504-18.448 7.996-8.633 17.769-19.126 21.678-23.696 7.641-8.802 9.24-9.309 14.393-5.078zm-66.1 89.536c1.599.677 3.732 2.539 4.62 4.232 1.599 2.708.711 3.554-6.397 6.601-9.24 4.062-13.149 3.554-13.149-1.862 0-7.447 7.286-11.679 14.926-8.971z" stroke="#000" stroke-width="2" mask="url(#b)"/><path d="M289.66 152.996c0 1.015 4.797 1.692 10.661 1.692s10.661-.677 10.661-1.692c0-1.016-4.797-1.693-10.661-1.693s-10.661.677-10.661 1.693z" fill="#262424"/><path d="M289.66 152.996c0 1.015 4.797 1.692 10.661 1.692s10.661-.677 10.661-1.692c0-1.016-4.797-1.693-10.661-1.693s-10.661.677-10.661 1.693z" fill="#D0CDFF" fill-opacity=".2"/><path d="M293.214 363.719c-2.843 3.386-.889 10.494 3.376 11.848 7.818 2.37 14.215-4.739 9.772-10.663-3.02-4.231-9.95-4.908-13.148-1.185zm11.194 2.878c1.244 3.554-.711 6.432-4.087 6.432-4.087 0-6.041-2.709-4.62-5.924 1.244-3.047 7.641-3.386 8.707-.508z" fill="#262424"/><path d="M293.214 363.719c-2.843 3.386-.889 10.494 3.376 11.848 7.818 2.37 14.215-4.739 9.772-10.663-3.02-4.231-9.95-4.908-13.148-1.185zm11.194 2.878c1.244 3.554-.711 6.432-4.087 6.432-4.087 0-6.041-2.709-4.62-5.924 1.244-3.047 7.641-3.386 8.707-.508z" fill="#D0CDFF" fill-opacity=".2"/><path d="m244.794 165.267 110.61.423-.444 189.99-102.17.423.888-16.503-10.217-14.386 9.329-13.118-2.666-14.386-6.219-9.31 3.554-8.462 6.219-11.848-3.998-11.848-7.107-8.463c.746-27.504 1.475-55.008 2.221-82.512z" fill="#262424" stroke="#000"/><path stroke="#fff" stroke-width="2" d="M250 175h20M251 196v-20M351 196v-20M351 348v-20M332 175h20M254 347h20M332 347h20"/><path d="m231 174 5.5 5 .5 13.5-1 28.5-26.5-29.5-1-1.5-.5-1.5-.5-2v-4l1-3.5 1-2 1.5-2 1.5-1.5 2-1 2-1 2.5-1 2.5-.5 2.5.5 3 1.5 4 2z" fill="#D0CDFF" stroke="#000"/><path d="m410 424 8-10.5 18.5-19.5 4-5 5.5-5.5 4.5-5.5 4-2 4 2.5 7 5.5 6 5.5 5.5 4 5.5 5.5 2.5 2.5 2.5 4-2.5 3.5-5.5 6.5-8 8.5-8 7.5-4.5 4.5-7 6-9 7.5-4 1-2-1.5-3.5-1 2.5 3.5-4 3-8 5-8 5-10 5-3.5-.5-4.5-3.5-7.5-3-8 2-6 4.5-3.5 7h-4.5l-2-2.5 2-4.5 4.5-5.5 5.5-6 12-13.5 13-12.5 6.5-4.5v-3z" fill="#484550" stroke="#484550" stroke-width="4"/><g clip-path="url(#c)"><path fill="#FFD0C6" d="M258 211h85v77h-85z"/><path d="M260.131 209.208c-2.35.462-4.279 1.647-5.467 3.312l-.569.777-.074 16.322c-.05 16.062-.05 16.321.445 17.32.272.555.965 1.407 1.509 1.869l1.015.851-1.015.852c-.544.462-1.237 1.314-1.509 1.869-.495.999-.495 1.258-.445 17.32l.074 16.321.569.778c.817 1.147 1.955 2.054 3.365 2.664l1.261.537H340.681l1.262-.537c1.41-.61 2.548-1.517 3.364-2.664l.569-.778.075-16.321c.049-16.062.049-16.321-.446-17.32-.272-.555-.965-1.407-1.509-1.869l-1.014-.852 1.014-.851c.544-.462 1.212-1.314 1.509-1.85.495-.999.495-1.388.495-17.006s0-16.007-.495-17.006c-.717-1.407-2.177-2.572-4.156-3.294l-1.657-.611-39.211-.037c-30.553-.018-39.459.019-40.35.204zm79.882 2.683c1.163.444 1.905 1.036 2.4 1.906.321.611.371 2.609.371 16.155 0 13.545-.05 15.544-.371 16.154-.495.87-1.237 1.462-2.4 1.907-.89.333-2.078.351-40.027.351-37.95 0-39.137-.018-40.028-.351-1.162-.445-1.905-1.037-2.399-1.907-.322-.61-.372-2.609-.372-16.191 0-14.675.025-15.544.471-16.248.494-.814 1.236-1.369 2.374-1.813.668-.278 4.676-.296 39.904-.315 38.024 0 39.187.019 40.077.352zm0 39.415c1.163.445 1.905 1.037 2.4 1.906.321.611.371 2.61.371 16.155 0 13.546-.05 15.544-.371 16.155-.495.87-1.237 1.462-2.4 1.906-.89.333-2.078.351-40.027.351-37.95 0-39.137-.018-40.028-.351-1.162-.444-1.905-1.036-2.399-1.906-.322-.611-.372-2.609-.372-16.192 0-14.674.025-15.544.471-16.247.494-.814 1.236-1.37 2.374-1.814.668-.277 4.676-.296 39.904-.314 38.024 0 39.187.018 40.077.351z" fill="#000"/><path d="M296.572 214.13c-9.822 1.332-16.971 8.087-16.303 15.452.495 5.366 4.626 10.029 10.91 12.305 1.385.5 3.29 1.055 4.23 1.222 2.301.425 6.853.425 9.079.018 9.426-1.721 15.685-7.938 15.214-15.1-.148-2.405-.593-3.701-2.028-5.847-2.474-3.775-6.877-6.532-12.246-7.68-2.127-.462-6.729-.647-8.856-.37zm4.453 2.554c1.063.536 2.102 1.665 2.919 3.22 1.187 2.257 1.484 2.091-3.958 2.091-5.443 0-5.146.166-3.959-2.091 1.064-2.036 2.746-3.553 3.959-3.553.198 0 .667.148 1.039.333zm-7.595 1.499c-.322.518-.891 1.647-1.237 2.535a35.198 35.198 0 0 1-.693 1.684c-.049.018-1.064.259-2.251.518-1.187.259-2.622.648-3.167.851-.544.204-1.063.333-1.138.259-.247-.166 1.064-1.906 2.301-3.072.594-.573 1.682-1.387 2.424-1.813 1.287-.74 3.81-1.851 4.206-1.869.099 0-.099.407-.445.907zm13.928-.463c1.831.685 3.76 1.851 5.121 3.053 1.336 1.185 2.82 3.072 2.548 3.257-.074.074-.594-.055-1.138-.259-.544-.203-1.979-.592-3.167-.851a75.81 75.81 0 0 1-2.251-.518 36.44 36.44 0 0 1-.693-1.684c-.346-.888-.915-2.017-1.237-2.535-.346-.5-.569-.907-.494-.907.074 0 .668.204 1.311.444zm-1.93 6.958c.347.426.544 3.83.371 5.921-.148 1.832-.247 2.073-.717 2.258-.347.148-2.078.222-5.096.222-3.019 0-4.75-.074-5.097-.222-.47-.185-.569-.426-.717-2.258-.173-2.017.025-5.495.346-5.884.248-.296 1.905-.37 6.556-.315 3.018.037 4.23.111 4.354.278zm-14.472 3.978c0 2.48-.074 3.609-.272 3.609-.446 0-2.895-.666-4.008-1.092-1.336-.499-2.746-1.443-3.043-2.017-.593-1.147 1.534-2.591 5.27-3.571 1.113-.296 2.053-.537 2.053-.537v3.608zm21.548-2.683c2.671.87 4.329 2.221 3.834 3.183-.297.574-1.707 1.518-3.043 2.017-1.113.426-3.562 1.092-4.008 1.092-.198 0-.272-1.11-.272-3.59v-3.571l1.188.259c.643.148 1.682.425 2.301.61zm-23.057 8.587 2.004.425.445 1.092c.247.611.767 1.721 1.163 2.48.396.74.692 1.406.618 1.443-.049.037-.791-.204-1.657-.537-2.202-.869-5.27-3.201-6.457-4.922l-.94-1.332 1.41.462c.767.259 2.301.648 3.414.889zm24.986-.038c-1.212 1.74-4.28 4.072-6.482 4.941-.865.333-1.608.574-1.682.518-.049-.037.173-.536.52-1.128.346-.574.816-1.647 1.088-2.369.248-.74.619-1.388.792-1.462.198-.074 1.286-.351 2.449-.611 1.163-.259 2.548-.647 3.092-.832.545-.204 1.015-.37 1.064-.37.05-.019-.346.592-.841 1.313zm-10.143 2.24c-1.163 2.59-2.82 4.2-4.304 4.2-.47 0-1.04-.203-1.608-.574-.891-.592-2.351-2.609-2.92-4.052l-.346-.833h9.747l-.569 1.259zM265.575 256.025c-1.411.37-2.375.981-2.92 1.851-.519.795-.544.962-.47 9.863l.075 9.049.692.795c.495.537 1.089.926 1.979 1.24l1.287.444h10.514c6.951 0 10.86-.074 11.503-.203 1.287-.278 2.944-1.518 3.315-2.48.371-1.018.371-17.117 0-18.135-.371-.962-2.028-2.202-3.315-2.479-1.484-.315-21.473-.259-22.66.055zm22.339 2.646c.42.278.445.796.445 8.809 0 9.715.124 9.196-2.029 9.196h-1.187v-2.812c0-3.183-.297-3.942-1.88-4.923l-.841-.518.42-.647c.545-.833.718-2.554.322-3.59-.371-1.018-1.93-2.369-3.29-2.906-1.41-.518-3.513-.647-5.022-.259-1.633.408-2.796 1.148-3.686 2.351-.941 1.295-1.039 3.145-.198 4.33l.519.758-.989.611c-1.509.944-1.683 1.443-1.683 4.737v2.868h-1.336c-2.251 0-2.127.482-2.127-9.196 0-8.143.025-8.402.495-8.753.47-.352.816-.37 11.058-.37 9.475 0 10.588.037 11.009.314zm-9.549 4.867c1.707.629 2.3 2.036 1.385 3.313-.891 1.239-3.068 1.628-4.626.869-2.078-1.018-1.806-3.553.47-4.293 1.064-.333 1.558-.314 2.771.111zm2.943 7.495c.594.425.619.536.619 3.053v2.59h-9.896v-2.646c0-1.443.099-2.72.198-2.831.446-.5 1.311-.611 4.824-.629 3.563 0 3.686.018 4.255.463zM295.681 256.155l-.643.37v2.961c0 2.701.05 2.979.495 3.312.495.37.816.37 21.003.37h20.533l.371-.407c.322-.333.396-.999.396-3.313v-2.923l-.643-.37c-.668-.389-.792-.389-20.756-.389s-20.088 0-20.756.389zm38.939 3.405v1.202h-36.366V258.357h36.366v1.203zM295.434 266.166c-.544.592-.495 1.129.173 1.591.545.389.767.407 6.061.407 5.171 0 5.517-.018 5.987-.37.619-.462.643-1.332.05-1.721-.396-.277-1.213-.314-6.185-.314-5.616 0-5.715 0-6.086.407zM312.034 266.092c-.569.462-.519 1.258.074 1.702.47.352.817.37 12.617.37 11.801 0 12.147-.018 12.617-.37.619-.462.643-1.332.05-1.721-.421-.277-1.658-.314-12.716-.314-11.553 0-12.271.018-12.642.333zM295.681 270.959c-.767.444-.841 1.054-.174 1.665.47.444.495.444 6.037.444 5.121 0 5.615-.037 6.086-.351.667-.463.667-1.296-.025-1.777-.52-.352-.841-.37-5.913-.37-5.047 0-5.393.018-6.011.389zM312.157 270.866c-.643.333-.742 1.369-.173 1.813.619.463 1.583.5 10.192.445 8.931-.056 8.758-.037 9.104-1.111.124-.388.025-.61-.47-.962l-.618-.481h-8.733c-7.52 0-8.832.037-9.302.296zM295.533 275.936c-.272.204-.495.574-.495.833s.223.629.495.833c.47.351.816.37 6.135.37 5.171 0 5.69-.037 6.061-.333.544-.463.52-1.388-.025-1.758-.396-.278-1.187-.315-6.061-.315-5.294 0-5.64.019-6.11.37zM312.034 275.899c-.545.463-.52 1.388.025 1.758.395.278 1.311.315 7.669.315 6.902 0 7.248-.019 7.718-.37.272-.204.495-.574.495-.833s-.223-.629-.495-.833c-.47-.351-.816-.37-7.743-.37-6.729 0-7.298.019-7.669.333zM334.522 281.21c-1.683.981-2.351 1.037-4.008.37-1.682-.666-3.538-.647-5.368.093-1.707.684-2.548.703-3.662.074-2.325-1.314-4.626-1.573-6.679-.759-1.237.5-3.241 2.461-3.241 3.202 0 .869 1.187 1.424 2.375 1.073.198-.056.717-.518 1.163-1.018 1.311-1.536 2.152-1.647 4.354-.537 2.449 1.222 4.527 1.314 6.828.315 1.41-.629 1.806-.629 3.389 0 2.449.944 4.873.592 7.125-1.055 1.138-.851 1.36-1.591.618-2.072-.94-.611-1.41-.556-2.894.314zM262.531 283.375c-.545.574-.495 1.185.099 1.629.494.37.816.37 14.299.37 13.433 0 13.829-.019 14.274-.37.223-.185.445-.574.445-.833s-.222-.648-.445-.833c-.445-.351-.841-.37-14.373-.37h-13.928l-.371.407z" fill="#000"/></g><defs><clipPath id="a"><path fill="#fff" transform="translate(127 51)" d="M0 0h195v182H0z"/></clipPath><clipPath id="c"><path fill="#fff" transform="translate(254 209)" d="M0 0h92v81H0z"/></clipPath></defs></svg>