<svg viewBox="0 0 557 521" fill="none" xmlns="http://www.w3.org/2000/svg">
<path d="M547 256.5C547 396.931 425.128 511 274.5 511C123.872 511 2 396.931 2 256.5C2 116.069 123.872 2 274.5 2C425.128 2 547 116.069 547 256.5Z" fill="#D0CDFF" stroke="#7A46D1" stroke-width="4"/>
<g clip-path="url(#clip0_147_50)">
<rect x="133" y="55" width="184" height="174" fill="#FFD0C6"/>
<path d="M139.996 51.467C135.015 52.5064 130.925 55.1675 128.408 58.9096L127.202 60.6559L127.044 97.3285C126.939 133.419 126.939 134.001 127.988 136.246C128.565 137.493 130.033 139.406 131.187 140.446L133.337 142.358L131.187 144.271C130.033 145.31 128.565 147.223 127.988 148.47C126.939 150.716 126.939 151.298 127.044 187.388L127.202 224.061L128.408 225.807C130.138 228.385 132.55 230.422 135.539 231.794L138.213 233H224.47H310.726L313.4 231.794C316.389 230.422 318.801 228.385 320.532 225.807L321.738 224.061L321.895 187.388C322 151.298 322 150.716 320.951 148.47C320.374 147.223 318.906 145.31 317.753 144.271L315.603 142.358L317.753 140.446C318.906 139.406 320.322 137.493 320.951 136.288C322 134.043 322 133.169 322 98.0769C322 62.9843 322 62.1111 320.951 59.8659C319.431 56.7059 316.337 54.0864 312.142 52.4648L308.629 51.0927L225.518 51.0096C160.761 50.968 141.884 51.0512 139.996 51.467ZM309.311 57.4959C311.775 58.4938 313.348 59.8243 314.397 61.7785C315.078 63.1506 315.183 67.6411 315.183 98.0769C315.183 128.512 315.078 133.003 314.397 134.375C313.348 136.329 311.775 137.66 309.311 138.658C307.423 139.406 304.906 139.448 224.47 139.448C144.033 139.448 141.517 139.406 139.629 138.658C137.164 137.66 135.591 136.329 134.543 134.375C133.861 133.003 133.756 128.512 133.756 97.9935C133.756 65.0217 133.809 63.0674 134.752 61.4875C135.801 59.658 137.374 58.4106 139.786 57.4127C141.202 56.7891 149.697 56.7475 224.365 56.7059C304.958 56.7059 307.423 56.7475 309.311 57.4959ZM309.311 146.059C311.775 147.057 313.348 148.387 314.397 150.341C315.078 151.713 315.183 156.204 315.183 186.64C315.183 217.075 315.078 221.566 314.397 222.938C313.348 224.892 311.775 226.223 309.311 227.22C307.423 227.969 304.906 228.011 224.47 228.011C144.033 228.011 141.517 227.969 139.629 227.22C137.164 226.223 135.591 224.892 134.543 222.938C133.861 221.566 133.756 217.075 133.756 186.557C133.756 153.585 133.809 151.63 134.752 150.05C135.801 148.221 137.374 146.973 139.786 145.976C141.202 145.352 149.697 145.31 224.365 145.269C304.958 145.269 307.423 145.31 309.311 146.059Z" fill="black"/>
<path d="M217.234 62.527C196.417 65.5206 181.262 80.6969 182.678 97.2451C183.727 109.303 192.484 119.781 205.802 124.895C208.739 126.018 212.776 127.265 214.769 127.639C219.645 128.596 229.294 128.596 234.013 127.681C253.991 123.814 267.257 109.844 266.261 93.7525C265.946 88.3475 265.002 85.4369 261.961 80.6137C256.718 72.1317 247.384 65.9364 236.005 63.3585C231.496 62.3191 221.743 61.9033 217.234 62.527ZM226.672 68.2649C228.927 69.4707 231.129 72.0069 232.859 75.4995C235.376 80.5722 236.005 80.198 224.47 80.198C212.934 80.198 213.563 80.5722 216.08 75.4995C218.335 70.9259 221.9 67.5164 224.47 67.5164C224.889 67.5164 225.885 67.8491 226.672 68.2649ZM210.574 71.6327C209.892 72.797 208.686 75.3332 207.952 77.329C207.218 79.3248 206.537 81.0295 206.484 81.1127C206.379 81.1543 204.229 81.6948 201.713 82.2769C199.196 82.859 196.154 83.7322 195.001 84.1895C193.847 84.6469 192.746 84.938 192.589 84.7716C192.064 84.3974 194.843 80.489 197.465 77.8695C198.724 76.5806 201.031 74.7512 202.604 73.7948C205.331 72.1317 210.679 69.637 211.518 69.5954C211.728 69.5954 211.308 70.5101 210.574 71.6327ZM240.095 70.5933C243.976 72.1317 248.066 74.7512 250.95 77.4538C253.781 80.1148 256.927 84.3558 256.351 84.7716C256.193 84.938 255.092 84.6469 253.938 84.1895C252.785 83.7322 249.744 82.859 247.226 82.2769C244.71 81.6948 242.56 81.1543 242.455 81.1127C242.403 81.0295 241.721 79.3248 240.987 77.329C240.253 75.3332 239.047 72.797 238.365 71.6327C237.631 70.5101 237.159 69.5954 237.316 69.5954C237.474 69.5954 238.732 70.0527 240.095 70.5933ZM236.005 86.2269C236.74 87.1832 237.159 94.8336 236.792 99.5321C236.477 103.648 236.267 104.189 235.271 104.605C234.537 104.938 230.867 105.104 224.47 105.104C218.072 105.104 214.402 104.938 213.668 104.605C212.672 104.189 212.462 103.648 212.147 99.5321C211.78 95 212.2 87.1832 212.881 86.3101C213.405 85.6448 216.919 85.4785 226.777 85.6032C233.174 85.6864 235.743 85.8527 236.005 86.2269ZM205.331 95.1663C205.331 100.738 205.173 103.274 204.754 103.274C203.81 103.274 198.619 101.777 196.259 100.821C193.428 99.6985 190.439 97.5778 189.81 96.2889C188.551 93.711 193.061 90.4678 200.979 88.2642C203.338 87.5991 205.331 87.0585 205.331 87.0585C205.331 87.0585 205.331 90.7175 205.331 95.1663ZM251.002 89.1374C256.665 91.0917 260.178 94.1267 259.129 96.2889C258.5 97.5778 255.511 99.6985 252.68 100.821C250.32 101.777 245.129 103.274 244.185 103.274C243.766 103.274 243.608 100.78 243.608 95.2078V87.1832L246.126 87.7655C247.489 88.0978 249.691 88.7217 251.002 89.1374ZM202.132 108.43L206.379 109.386L207.323 111.839C207.847 113.212 208.949 115.706 209.787 117.411C210.627 119.074 211.256 120.571 211.098 120.654C210.994 120.737 209.42 120.197 207.585 119.448C202.919 117.494 196.417 112.255 193.9 108.388L191.907 105.395L194.896 106.434C196.521 107.016 199.772 107.89 202.132 108.43ZM255.092 108.347C252.522 112.255 246.021 117.494 241.354 119.448C239.519 120.197 237.945 120.737 237.788 120.612C237.683 120.529 238.155 119.407 238.889 118.076C239.623 116.787 240.62 114.376 241.196 112.754C241.721 111.091 242.507 109.636 242.874 109.469C243.294 109.303 245.601 108.679 248.066 108.097C250.53 107.515 253.466 106.642 254.62 106.226C255.774 105.769 256.77 105.395 256.875 105.395C256.98 105.353 256.141 106.725 255.092 108.347ZM233.593 113.378C231.129 119.199 227.616 122.816 224.47 122.816C223.473 122.816 222.267 122.359 221.061 121.527C219.174 120.197 216.08 115.665 214.874 112.421L214.14 110.55H224.47H234.799L233.593 113.378Z" fill="black"/>
<path d="M151.533 156.661C148.544 157.493 146.499 158.865 145.346 160.819C144.245 162.607 144.192 162.981 144.349 182.981L144.507 203.313L145.975 205.1C147.024 206.306 148.282 207.18 150.17 207.887L152.896 208.884H175.182C189.916 208.884 198.201 208.718 199.564 208.427C202.291 207.803 205.804 205.017 206.59 202.855C207.377 200.569 207.377 164.395 206.59 162.108C205.804 159.946 202.291 157.16 199.564 156.537C196.418 155.83 154.05 155.955 151.533 156.661ZM198.882 162.607C199.774 163.231 199.826 164.395 199.826 182.399C199.826 204.228 200.089 203.063 195.527 203.063H193.01V196.743C193.01 189.592 192.38 187.887 189.024 185.683L187.242 184.519L188.133 183.064C189.287 181.193 189.654 177.326 188.815 174.998C188.028 172.711 184.725 169.676 181.841 168.47C178.852 167.306 174.395 167.014 171.196 167.888C167.736 168.802 165.271 170.466 163.383 173.168C161.391 176.079 161.181 180.236 162.964 182.898L164.065 184.602L161.968 185.974C158.769 188.095 158.402 189.218 158.402 196.619V203.063H155.571C150.799 203.063 151.061 204.144 151.061 182.399C151.061 164.104 151.114 163.522 152.11 162.732C153.106 161.942 153.84 161.9 175.549 161.9C195.631 161.9 197.991 161.984 198.882 162.607ZM178.642 173.542C182.26 174.956 183.519 178.116 181.579 180.985C179.691 183.771 175.077 184.644 171.773 182.939C167.368 180.652 167.946 174.956 172.769 173.293C175.024 172.544 176.073 172.586 178.642 173.542ZM184.882 190.382C186.141 191.338 186.193 191.588 186.193 197.242V203.063H175.706H165.219V197.118C165.219 193.874 165.428 191.005 165.638 190.756C166.582 189.633 168.417 189.384 175.863 189.342C183.414 189.342 183.676 189.384 184.882 190.382Z" fill="black"/>
<path d="M215.346 156.952L213.983 157.784V164.437C213.983 170.507 214.088 171.131 215.031 171.879C216.08 172.711 216.762 172.711 259.549 172.711H303.071L303.857 171.796C304.539 171.048 304.696 169.551 304.696 164.353V157.784L303.333 156.952C301.917 156.079 301.655 156.079 259.339 156.079C217.024 156.079 216.762 156.079 215.346 156.952ZM297.88 164.603V167.306H259.339H220.799V164.603V161.9H259.339H297.88V164.603Z" fill="black"/>
<path d="M214.822 179.446C213.669 180.777 213.774 181.983 215.189 183.022C216.343 183.896 216.815 183.937 228.036 183.937C238.995 183.937 239.729 183.896 240.726 183.105C242.036 182.066 242.089 180.112 240.83 179.239C239.991 178.615 238.261 178.532 227.721 178.532C215.819 178.532 215.609 178.532 214.822 179.446Z" fill="black"/>
<path d="M250.007 179.28C248.801 180.32 248.906 182.108 250.165 183.105C251.161 183.896 251.895 183.937 276.907 183.937C301.919 183.937 302.652 183.896 303.649 183.105C304.96 182.066 305.012 180.112 303.754 179.239C302.862 178.615 300.241 178.532 276.802 178.532C252.314 178.532 250.794 178.573 250.007 179.28Z" fill="black"/>
<path d="M215.345 190.215C213.719 191.213 213.562 192.585 214.978 193.957C215.974 194.955 216.027 194.955 227.772 194.955C238.626 194.955 239.675 194.872 240.671 194.166C242.087 193.126 242.087 191.255 240.619 190.174C239.518 189.384 238.836 189.342 228.087 189.342C217.39 189.342 216.656 189.384 215.345 190.215Z" fill="black"/>
<path d="M250.268 190.008C248.905 190.756 248.695 193.084 249.901 194.082C251.212 195.122 253.257 195.205 271.505 195.08C290.434 194.955 290.067 194.997 290.801 192.585C291.063 191.712 290.853 191.213 289.805 190.423L288.494 189.342H269.984C254.044 189.342 251.265 189.426 250.268 190.008Z" fill="black"/>
<path d="M215.031 201.4C214.455 201.858 213.983 202.689 213.983 203.271C213.983 203.853 214.455 204.685 215.031 205.142C216.028 205.932 216.762 205.974 228.035 205.974C238.995 205.974 240.096 205.891 240.882 205.225C242.036 204.186 241.983 202.107 240.83 201.276C239.991 200.652 238.313 200.569 227.983 200.569C216.762 200.569 216.028 200.61 215.031 201.4Z" fill="black"/>
<path d="M250.006 201.317C248.853 202.356 248.905 204.435 250.059 205.267C250.897 205.891 252.838 205.974 266.314 205.974C280.943 205.974 281.677 205.932 282.674 205.142C283.251 204.685 283.722 203.853 283.722 203.271C283.722 202.689 283.251 201.858 282.674 201.4C281.677 200.61 280.943 200.569 266.261 200.569C251.999 200.569 250.793 200.61 250.006 201.317Z" fill="black"/>
<path d="M297.671 213.25C294.105 215.454 292.69 215.579 289.176 214.081C285.611 212.585 281.678 212.627 277.798 214.29C274.18 215.828 272.397 215.869 270.038 214.456C265.109 211.504 260.232 210.922 255.88 212.751C253.258 213.874 249.011 218.281 249.011 219.944C249.011 221.898 251.528 223.146 254.045 222.356C254.464 222.231 255.565 221.191 256.509 220.069C259.288 216.618 261.071 216.368 265.738 218.863C270.929 221.608 275.334 221.815 280.21 219.57C283.199 218.156 284.038 218.156 287.394 219.57C292.585 221.691 297.723 220.901 302.495 217.2C304.907 215.287 305.379 213.624 303.806 212.543C301.813 211.171 300.817 211.296 297.671 213.25Z" fill="black"/>
<path d="M145.081 218.115C143.928 219.404 144.032 220.776 145.291 221.774C146.34 222.605 147.021 222.605 175.598 222.605C204.071 222.605 204.91 222.564 205.854 221.774C206.326 221.358 206.798 220.485 206.798 219.903C206.798 219.321 206.326 218.447 205.854 218.032C204.91 217.242 204.071 217.2 175.389 217.2H145.868L145.081 218.115Z" fill="black"/>
<rect x="238" y="163" width="5" height="71" fill="#CFCCFE"/>
</g>
<rect x="240" y="165" width="2" height="38" fill="#CFCCFE"/>
<path d="M244.556 146.756L249 143V165H241.222L239 164.463V158.561L239.556 154.805L240.111 151.585L241.222 149.976L242.333 148.902L244.556 146.756Z" fill="#CFCCFE"/>
<rect x="249" y="143" width="40" height="22" fill="#CFCCFE"/>
<rect x="289" y="143" width="33" height="22" fill="#CFCCFE"/>
<mask id="path-20-inside-1_147_50" fill="white">
<path d="M247.015 140.64C239.73 143.517 237.242 147.918 236.709 160.612C236.354 167.552 235.465 173.306 234.932 173.306C234.399 173.306 232.622 172.122 231.023 170.768C229.424 169.413 225.515 167.721 222.494 167.213C217.697 166.198 215.92 167.044 210.589 172.122C206.147 176.353 204.37 179.569 204.37 183.462C204.37 191.925 205.258 193.109 232.445 220.19C235.465 223.406 236.354 226.114 236.354 233.9V243.548L227.825 243.04C219.829 242.532 218.763 242.871 213.61 248.625C210.411 251.841 207.924 256.242 207.924 258.104C207.924 263.181 212.721 269.952 219.651 274.86C222.849 277.23 225.692 279.43 225.692 279.938C225.692 280.615 223.027 281.969 219.651 282.984C212.366 285.523 207.035 294.494 208.812 301.772C209.345 304.48 213.254 309.388 217.163 312.943L224.449 319.036L219.296 322.082C216.453 323.775 213.254 326.145 212.188 327.499C208.812 331.392 208.101 339.685 210.589 344.255C213.254 349.163 225.337 358.811 231.734 361.181C234.932 362.196 236.531 364.396 237.42 368.797C238.841 376.414 246.482 381.491 256.432 381.491C262.829 381.491 265.139 383.015 283.974 400.279C295.523 410.603 313.115 424.821 323.42 431.76C333.726 438.869 342.788 445.132 343.499 445.809C344.387 446.486 344.032 448.686 342.611 450.717C340.478 454.102 341.011 454.948 349.007 461.719C353.805 465.781 357.181 469.843 356.47 470.859C355.937 471.874 359.669 476.782 364.644 481.86L374.061 491L380.28 488.63C407.289 477.967 436.429 461.042 455.797 444.962C470.723 432.607 494 407.388 494 403.664C494 401.633 487.603 395.201 477.475 387.077C468.413 379.63 459.706 372.182 457.93 370.49C455.62 368.289 454.198 367.951 452.777 369.305C451.355 370.659 448.157 369.136 441.227 363.55C432.343 356.272 431.454 355.934 428.433 358.473C424.347 362.027 423.458 361.858 420.793 357.288C419.194 354.749 418.483 344.424 418.483 322.252C418.483 292.801 418.128 290.262 413.685 279.091C409.421 267.921 406.756 256.75 404.268 239.316C403.557 235.085 401.958 224.422 400.537 215.62C399.115 206.819 397.694 197.002 397.161 193.956C396.094 186.17 395.028 185.154 388.632 185.154C384.9 185.154 380.813 186.847 377.082 189.724C369.619 195.817 367.309 207.835 368.908 233.054C369.797 246.256 369.441 254.042 367.664 260.981C365.355 269.952 365.177 266.397 364.288 210.035L363.4 149.272L357.536 144.364L351.85 139.455L300.676 139.624C272.602 139.624 248.436 140.132 247.015 140.64ZM353.805 145.041C355.404 146.225 357.536 148.764 358.602 150.795C361.445 155.873 361.623 364.227 358.78 370.151C355.226 377.598 351.14 378.106 298.366 378.106H248.614L244.35 373.875C241.862 371.674 239.907 367.951 239.907 365.751C239.907 358.642 247.015 357.795 304.408 357.795H357.181V260.473V163.151H299.433H241.684V205.804C241.684 229.161 241.151 247.948 240.618 247.441C240.085 246.763 239.73 230.515 239.73 211.05C239.73 145.887 239.374 151.642 244.35 147.072L248.614 142.84H299.788C337.28 143.01 351.673 143.517 353.805 145.041ZM355.404 260.473V354.41H304.763H254.122L255.189 346.963C256.255 340.024 255.899 338.839 250.746 334.1C243.994 327.668 243.817 323.775 249.68 318.19C253.056 314.974 254.122 312.096 254.122 306.849C254.122 301.772 252.701 298.048 249.68 294.155C243.994 287.216 244.172 283.492 249.858 278.414C253.767 274.86 254.3 272.998 253.945 265.72C253.589 259.119 252.523 256.411 249.325 254.042C245.238 250.995 245.238 250.656 245.238 208.681V166.536H300.321H355.404V260.473ZM228.891 173.306C232.089 175.168 235.11 177.707 235.643 178.892C235.998 180.077 236.176 189.724 235.998 200.049L235.465 219.175L221.783 204.619C210.411 192.771 207.924 189.047 207.924 184.647C207.924 178.553 210.234 174.83 215.92 171.952C220.895 169.244 222.139 169.413 228.891 173.306ZM392.541 190.57C393.429 192.771 395.384 203.942 396.983 215.62C401.958 250.656 405.156 266.566 409.954 280.784C414.929 294.832 415.995 311.758 414.218 341.378C413.685 351.194 414.041 353.733 417.417 357.795C419.371 360.504 421.148 363.55 421.148 364.566C421.148 365.581 404.979 383.692 385.255 404.849C365.532 426.006 349.185 443.608 348.83 443.947C347.23 446.147 302.276 413.142 280.953 394.016L267.804 382.338L310.627 381.491L353.627 380.645L358.425 375.906L363.4 371.336L364.466 322.59C365.355 279.261 365.71 273.337 368.731 267.243C371.751 261.32 372.284 256.58 372.284 230.853C372.284 198.356 372.995 195.817 382.59 190.232C389.875 186.001 390.764 186.001 392.541 190.57ZM233.333 246.764C242.75 250.656 251.279 260.304 251.279 267.243C251.279 275.029 245.593 280.615 237.597 280.615C230.49 280.615 214.143 268.428 212.899 262.504C211.477 255.565 214.143 250.318 220.362 247.441C227.825 243.886 226.403 243.886 233.333 246.764ZM241.329 291.278C249.858 297.879 252.879 303.464 251.279 309.727C249.858 314.974 242.573 320.559 237.064 320.559C231.556 320.559 214.498 307.188 213.254 301.941C211.477 295.34 214.854 288.231 221.073 285.692C228.002 282.815 231.734 284 241.329 291.278ZM240.44 329.36C253.767 339.347 255.544 346.455 247.193 354.58C239.907 361.35 234.754 360.842 223.56 352.21C213.787 344.763 211.833 340.024 214.143 331.222C215.387 326.483 224.804 321.913 230.135 323.436C232.089 323.944 236.709 326.652 240.44 329.36ZM436.429 363.55C437.673 364.904 441.049 367.612 443.537 369.474C447.801 372.69 447.979 373.367 445.669 376.075C442.648 379.291 375.483 451.394 366.065 461.38L359.846 467.981L352.206 460.534L344.565 453.087L387.565 407.218C411.198 381.83 431.276 361.181 432.165 361.181C433.053 361.181 435.008 362.196 436.429 363.55ZM459.529 379.291C461.483 380.984 468.413 386.738 474.987 392.154C481.562 397.571 486.893 403.325 486.893 405.018C486.893 407.895 464.149 431.591 449.223 444.116C440.694 451.225 440.694 451.225 435.896 448.347C433.053 446.655 431.987 446.316 433.231 447.67C434.297 448.855 435.363 450.548 435.363 451.225C435.363 453.256 408.533 469.504 405.156 469.504C403.557 469.504 400.714 467.981 398.937 466.119C394.14 461.042 384.367 461.549 378.148 467.304C375.483 469.843 373.173 472.89 373.173 474.074C373.173 477.121 368.02 476.952 366.776 473.736C365.177 470.012 406.045 426.513 409.243 428.375C410.309 429.052 410.665 428.206 409.954 426.513C409.066 424.313 412.797 419.405 423.458 408.065C431.454 399.432 441.227 388.939 445.136 384.369C452.777 375.567 454.376 375.06 459.529 379.291ZM393.429 468.827C395.028 469.504 397.161 471.366 398.049 473.059C399.648 475.767 398.76 476.613 391.652 479.66C382.412 483.722 378.503 483.214 378.503 477.798C378.503 470.351 385.789 466.119 393.429 468.827Z"/>
</mask>
<path d="M247.015 140.64C239.73 143.517 237.242 147.918 236.709 160.612C236.354 167.552 235.465 173.306 234.932 173.306C234.399 173.306 232.622 172.122 231.023 170.768C229.424 169.413 225.515 167.721 222.494 167.213C217.697 166.198 215.92 167.044 210.589 172.122C206.147 176.353 204.37 179.569 204.37 183.462C204.37 191.925 205.258 193.109 232.445 220.19C235.465 223.406 236.354 226.114 236.354 233.9V243.548L227.825 243.04C219.829 242.532 218.763 242.871 213.61 248.625C210.411 251.841 207.924 256.242 207.924 258.104C207.924 263.181 212.721 269.952 219.651 274.86C222.849 277.23 225.692 279.43 225.692 279.938C225.692 280.615 223.027 281.969 219.651 282.984C212.366 285.523 207.035 294.494 208.812 301.772C209.345 304.48 213.254 309.388 217.163 312.943L224.449 319.036L219.296 322.082C216.453 323.775 213.254 326.145 212.188 327.499C208.812 331.392 208.101 339.685 210.589 344.255C213.254 349.163 225.337 358.811 231.734 361.181C234.932 362.196 236.531 364.396 237.42 368.797C238.841 376.414 246.482 381.491 256.432 381.491C262.829 381.491 265.139 383.015 283.974 400.279C295.523 410.603 313.115 424.821 323.42 431.76C333.726 438.869 342.788 445.132 343.499 445.809C344.387 446.486 344.032 448.686 342.611 450.717C340.478 454.102 341.011 454.948 349.007 461.719C353.805 465.781 357.181 469.843 356.47 470.859C355.937 471.874 359.669 476.782 364.644 481.86L374.061 491L380.28 488.63C407.289 477.967 436.429 461.042 455.797 444.962C470.723 432.607 494 407.388 494 403.664C494 401.633 487.603 395.201 477.475 387.077C468.413 379.63 459.706 372.182 457.93 370.49C455.62 368.289 454.198 367.951 452.777 369.305C451.355 370.659 448.157 369.136 441.227 363.55C432.343 356.272 431.454 355.934 428.433 358.473C424.347 362.027 423.458 361.858 420.793 357.288C419.194 354.749 418.483 344.424 418.483 322.252C418.483 292.801 418.128 290.262 413.685 279.091C409.421 267.921 406.756 256.75 404.268 239.316C403.557 235.085 401.958 224.422 400.537 215.62C399.115 206.819 397.694 197.002 397.161 193.956C396.094 186.17 395.028 185.154 388.632 185.154C384.9 185.154 380.813 186.847 377.082 189.724C369.619 195.817 367.309 207.835 368.908 233.054C369.797 246.256 369.441 254.042 367.664 260.981C365.355 269.952 365.177 266.397 364.288 210.035L363.4 149.272L357.536 144.364L351.85 139.455L300.676 139.624C272.602 139.624 248.436 140.132 247.015 140.64ZM353.805 145.041C355.404 146.225 357.536 148.764 358.602 150.795C361.445 155.873 361.623 364.227 358.78 370.151C355.226 377.598 351.14 378.106 298.366 378.106H248.614L244.35 373.875C241.862 371.674 239.907 367.951 239.907 365.751C239.907 358.642 247.015 357.795 304.408 357.795H357.181V260.473V163.151H299.433H241.684V205.804C241.684 229.161 241.151 247.948 240.618 247.441C240.085 246.763 239.73 230.515 239.73 211.05C239.73 145.887 239.374 151.642 244.35 147.072L248.614 142.84H299.788C337.28 143.01 351.673 143.517 353.805 145.041ZM355.404 260.473V354.41H304.763H254.122L255.189 346.963C256.255 340.024 255.899 338.839 250.746 334.1C243.994 327.668 243.817 323.775 249.68 318.19C253.056 314.974 254.122 312.096 254.122 306.849C254.122 301.772 252.701 298.048 249.68 294.155C243.994 287.216 244.172 283.492 249.858 278.414C253.767 274.86 254.3 272.998 253.945 265.72C253.589 259.119 252.523 256.411 249.325 254.042C245.238 250.995 245.238 250.656 245.238 208.681V166.536H300.321H355.404V260.473ZM228.891 173.306C232.089 175.168 235.11 177.707 235.643 178.892C235.998 180.077 236.176 189.724 235.998 200.049L235.465 219.175L221.783 204.619C210.411 192.771 207.924 189.047 207.924 184.647C207.924 178.553 210.234 174.83 215.92 171.952C220.895 169.244 222.139 169.413 228.891 173.306ZM392.541 190.57C393.429 192.771 395.384 203.942 396.983 215.62C401.958 250.656 405.156 266.566 409.954 280.784C414.929 294.832 415.995 311.758 414.218 341.378C413.685 351.194 414.041 353.733 417.417 357.795C419.371 360.504 421.148 363.55 421.148 364.566C421.148 365.581 404.979 383.692 385.255 404.849C365.532 426.006 349.185 443.608 348.83 443.947C347.23 446.147 302.276 413.142 280.953 394.016L267.804 382.338L310.627 381.491L353.627 380.645L358.425 375.906L363.4 371.336L364.466 322.59C365.355 279.261 365.71 273.337 368.731 267.243C371.751 261.32 372.284 256.58 372.284 230.853C372.284 198.356 372.995 195.817 382.59 190.232C389.875 186.001 390.764 186.001 392.541 190.57ZM233.333 246.764C242.75 250.656 251.279 260.304 251.279 267.243C251.279 275.029 245.593 280.615 237.597 280.615C230.49 280.615 214.143 268.428 212.899 262.504C211.477 255.565 214.143 250.318 220.362 247.441C227.825 243.886 226.403 243.886 233.333 246.764ZM241.329 291.278C249.858 297.879 252.879 303.464 251.279 309.727C249.858 314.974 242.573 320.559 237.064 320.559C231.556 320.559 214.498 307.188 213.254 301.941C211.477 295.34 214.854 288.231 221.073 285.692C228.002 282.815 231.734 284 241.329 291.278ZM240.44 329.36C253.767 339.347 255.544 346.455 247.193 354.58C239.907 361.35 234.754 360.842 223.56 352.21C213.787 344.763 211.833 340.024 214.143 331.222C215.387 326.483 224.804 321.913 230.135 323.436C232.089 323.944 236.709 326.652 240.44 329.36ZM436.429 363.55C437.673 364.904 441.049 367.612 443.537 369.474C447.801 372.69 447.979 373.367 445.669 376.075C442.648 379.291 375.483 451.394 366.065 461.38L359.846 467.981L352.206 460.534L344.565 453.087L387.565 407.218C411.198 381.83 431.276 361.181 432.165 361.181C433.053 361.181 435.008 362.196 436.429 363.55ZM459.529 379.291C461.483 380.984 468.413 386.738 474.987 392.154C481.562 397.571 486.893 403.325 486.893 405.018C486.893 407.895 464.149 431.591 449.223 444.116C440.694 451.225 440.694 451.225 435.896 448.347C433.053 446.655 431.987 446.316 433.231 447.67C434.297 448.855 435.363 450.548 435.363 451.225C435.363 453.256 408.533 469.504 405.156 469.504C403.557 469.504 400.714 467.981 398.937 466.119C394.14 461.042 384.367 461.549 378.148 467.304C375.483 469.843 373.173 472.89 373.173 474.074C373.173 477.121 368.02 476.952 366.776 473.736C365.177 470.012 406.045 426.513 409.243 428.375C410.309 429.052 410.665 428.206 409.954 426.513C409.066 424.313 412.797 419.405 423.458 408.065C431.454 399.432 441.227 388.939 445.136 384.369C452.777 375.567 454.376 375.06 459.529 379.291ZM393.429 468.827C395.028 469.504 397.161 471.366 398.049 473.059C399.648 475.767 398.76 476.613 391.652 479.66C382.412 483.722 378.503 483.214 378.503 477.798C378.503 470.351 385.789 466.119 393.429 468.827Z" fill="#262424"/>
<path d="M247.015 140.64C239.73 143.517 237.242 147.918 236.709 160.612C236.354 167.552 235.465 173.306 234.932 173.306C234.399 173.306 232.622 172.122 231.023 170.768C229.424 169.413 225.515 167.721 222.494 167.213C217.697 166.198 215.92 167.044 210.589 172.122C206.147 176.353 204.37 179.569 204.37 183.462C204.37 191.925 205.258 193.109 232.445 220.19C235.465 223.406 236.354 226.114 236.354 233.9V243.548L227.825 243.04C219.829 242.532 218.763 242.871 213.61 248.625C210.411 251.841 207.924 256.242 207.924 258.104C207.924 263.181 212.721 269.952 219.651 274.86C222.849 277.23 225.692 279.43 225.692 279.938C225.692 280.615 223.027 281.969 219.651 282.984C212.366 285.523 207.035 294.494 208.812 301.772C209.345 304.48 213.254 309.388 217.163 312.943L224.449 319.036L219.296 322.082C216.453 323.775 213.254 326.145 212.188 327.499C208.812 331.392 208.101 339.685 210.589 344.255C213.254 349.163 225.337 358.811 231.734 361.181C234.932 362.196 236.531 364.396 237.42 368.797C238.841 376.414 246.482 381.491 256.432 381.491C262.829 381.491 265.139 383.015 283.974 400.279C295.523 410.603 313.115 424.821 323.42 431.76C333.726 438.869 342.788 445.132 343.499 445.809C344.387 446.486 344.032 448.686 342.611 450.717C340.478 454.102 341.011 454.948 349.007 461.719C353.805 465.781 357.181 469.843 356.47 470.859C355.937 471.874 359.669 476.782 364.644 481.86L374.061 491L380.28 488.63C407.289 477.967 436.429 461.042 455.797 444.962C470.723 432.607 494 407.388 494 403.664C494 401.633 487.603 395.201 477.475 387.077C468.413 379.63 459.706 372.182 457.93 370.49C455.62 368.289 454.198 367.951 452.777 369.305C451.355 370.659 448.157 369.136 441.227 363.55C432.343 356.272 431.454 355.934 428.433 358.473C424.347 362.027 423.458 361.858 420.793 357.288C419.194 354.749 418.483 344.424 418.483 322.252C418.483 292.801 418.128 290.262 413.685 279.091C409.421 267.921 406.756 256.75 404.268 239.316C403.557 235.085 401.958 224.422 400.537 215.62C399.115 206.819 397.694 197.002 397.161 193.956C396.094 186.17 395.028 185.154 388.632 185.154C384.9 185.154 380.813 186.847 377.082 189.724C369.619 195.817 367.309 207.835 368.908 233.054C369.797 246.256 369.441 254.042 367.664 260.981C365.355 269.952 365.177 266.397 364.288 210.035L363.4 149.272L357.536 144.364L351.85 139.455L300.676 139.624C272.602 139.624 248.436 140.132 247.015 140.64ZM353.805 145.041C355.404 146.225 357.536 148.764 358.602 150.795C361.445 155.873 361.623 364.227 358.78 370.151C355.226 377.598 351.14 378.106 298.366 378.106H248.614L244.35 373.875C241.862 371.674 239.907 367.951 239.907 365.751C239.907 358.642 247.015 357.795 304.408 357.795H357.181V260.473V163.151H299.433H241.684V205.804C241.684 229.161 241.151 247.948 240.618 247.441C240.085 246.763 239.73 230.515 239.73 211.05C239.73 145.887 239.374 151.642 244.35 147.072L248.614 142.84H299.788C337.28 143.01 351.673 143.517 353.805 145.041ZM355.404 260.473V354.41H304.763H254.122L255.189 346.963C256.255 340.024 255.899 338.839 250.746 334.1C243.994 327.668 243.817 323.775 249.68 318.19C253.056 314.974 254.122 312.096 254.122 306.849C254.122 301.772 252.701 298.048 249.68 294.155C243.994 287.216 244.172 283.492 249.858 278.414C253.767 274.86 254.3 272.998 253.945 265.72C253.589 259.119 252.523 256.411 249.325 254.042C245.238 250.995 245.238 250.656 245.238 208.681V166.536H300.321H355.404V260.473ZM228.891 173.306C232.089 175.168 235.11 177.707 235.643 178.892C235.998 180.077 236.176 189.724 235.998 200.049L235.465 219.175L221.783 204.619C210.411 192.771 207.924 189.047 207.924 184.647C207.924 178.553 210.234 174.83 215.92 171.952C220.895 169.244 222.139 169.413 228.891 173.306ZM392.541 190.57C393.429 192.771 395.384 203.942 396.983 215.62C401.958 250.656 405.156 266.566 409.954 280.784C414.929 294.832 415.995 311.758 414.218 341.378C413.685 351.194 414.041 353.733 417.417 357.795C419.371 360.504 421.148 363.55 421.148 364.566C421.148 365.581 404.979 383.692 385.255 404.849C365.532 426.006 349.185 443.608 348.83 443.947C347.23 446.147 302.276 413.142 280.953 394.016L267.804 382.338L310.627 381.491L353.627 380.645L358.425 375.906L363.4 371.336L364.466 322.59C365.355 279.261 365.71 273.337 368.731 267.243C371.751 261.32 372.284 256.58 372.284 230.853C372.284 198.356 372.995 195.817 382.59 190.232C389.875 186.001 390.764 186.001 392.541 190.57ZM233.333 246.764C242.75 250.656 251.279 260.304 251.279 267.243C251.279 275.029 245.593 280.615 237.597 280.615C230.49 280.615 214.143 268.428 212.899 262.504C211.477 255.565 214.143 250.318 220.362 247.441C227.825 243.886 226.403 243.886 233.333 246.764ZM241.329 291.278C249.858 297.879 252.879 303.464 251.279 309.727C249.858 314.974 242.573 320.559 237.064 320.559C231.556 320.559 214.498 307.188 213.254 301.941C211.477 295.34 214.854 288.231 221.073 285.692C228.002 282.815 231.734 284 241.329 291.278ZM240.44 329.36C253.767 339.347 255.544 346.455 247.193 354.58C239.907 361.35 234.754 360.842 223.56 352.21C213.787 344.763 211.833 340.024 214.143 331.222C215.387 326.483 224.804 321.913 230.135 323.436C232.089 323.944 236.709 326.652 240.44 329.36ZM436.429 363.55C437.673 364.904 441.049 367.612 443.537 369.474C447.801 372.69 447.979 373.367 445.669 376.075C442.648 379.291 375.483 451.394 366.065 461.38L359.846 467.981L352.206 460.534L344.565 453.087L387.565 407.218C411.198 381.83 431.276 361.181 432.165 361.181C433.053 361.181 435.008 362.196 436.429 363.55ZM459.529 379.291C461.483 380.984 468.413 386.738 474.987 392.154C481.562 397.571 486.893 403.325 486.893 405.018C486.893 407.895 464.149 431.591 449.223 444.116C440.694 451.225 440.694 451.225 435.896 448.347C433.053 446.655 431.987 446.316 433.231 447.67C434.297 448.855 435.363 450.548 435.363 451.225C435.363 453.256 408.533 469.504 405.156 469.504C403.557 469.504 400.714 467.981 398.937 466.119C394.14 461.042 384.367 461.549 378.148 467.304C375.483 469.843 373.173 472.89 373.173 474.074C373.173 477.121 368.02 476.952 366.776 473.736C365.177 470.012 406.045 426.513 409.243 428.375C410.309 429.052 410.665 428.206 409.954 426.513C409.066 424.313 412.797 419.405 423.458 408.065C431.454 399.432 441.227 388.939 445.136 384.369C452.777 375.567 454.376 375.06 459.529 379.291ZM393.429 468.827C395.028 469.504 397.161 471.366 398.049 473.059C399.648 475.767 398.76 476.613 391.652 479.66C382.412 483.722 378.503 483.214 378.503 477.798C378.503 470.351 385.789 466.119 393.429 468.827Z" fill="#D0CDFF" fill-opacity="0.2"/>
<path d="M247.015 140.64C239.73 143.517 237.242 147.918 236.709 160.612C236.354 167.552 235.465 173.306 234.932 173.306C234.399 173.306 232.622 172.122 231.023 170.768C229.424 169.413 225.515 167.721 222.494 167.213C217.697 166.198 215.92 167.044 210.589 172.122C206.147 176.353 204.37 179.569 204.37 183.462C204.37 191.925 205.258 193.109 232.445 220.19C235.465 223.406 236.354 226.114 236.354 233.9V243.548L227.825 243.04C219.829 242.532 218.763 242.871 213.61 248.625C210.411 251.841 207.924 256.242 207.924 258.104C207.924 263.181 212.721 269.952 219.651 274.86C222.849 277.23 225.692 279.43 225.692 279.938C225.692 280.615 223.027 281.969 219.651 282.984C212.366 285.523 207.035 294.494 208.812 301.772C209.345 304.48 213.254 309.388 217.163 312.943L224.449 319.036L219.296 322.082C216.453 323.775 213.254 326.145 212.188 327.499C208.812 331.392 208.101 339.685 210.589 344.255C213.254 349.163 225.337 358.811 231.734 361.181C234.932 362.196 236.531 364.396 237.42 368.797C238.841 376.414 246.482 381.491 256.432 381.491C262.829 381.491 265.139 383.015 283.974 400.279C295.523 410.603 313.115 424.821 323.42 431.76C333.726 438.869 342.788 445.132 343.499 445.809C344.387 446.486 344.032 448.686 342.611 450.717C340.478 454.102 341.011 454.948 349.007 461.719C353.805 465.781 357.181 469.843 356.47 470.859C355.937 471.874 359.669 476.782 364.644 481.86L374.061 491L380.28 488.63C407.289 477.967 436.429 461.042 455.797 444.962C470.723 432.607 494 407.388 494 403.664C494 401.633 487.603 395.201 477.475 387.077C468.413 379.63 459.706 372.182 457.93 370.49C455.62 368.289 454.198 367.951 452.777 369.305C451.355 370.659 448.157 369.136 441.227 363.55C432.343 356.272 431.454 355.934 428.433 358.473C424.347 362.027 423.458 361.858 420.793 357.288C419.194 354.749 418.483 344.424 418.483 322.252C418.483 292.801 418.128 290.262 413.685 279.091C409.421 267.921 406.756 256.75 404.268 239.316C403.557 235.085 401.958 224.422 400.537 215.62C399.115 206.819 397.694 197.002 397.161 193.956C396.094 186.17 395.028 185.154 388.632 185.154C384.9 185.154 380.813 186.847 377.082 189.724C369.619 195.817 367.309 207.835 368.908 233.054C369.797 246.256 369.441 254.042 367.664 260.981C365.355 269.952 365.177 266.397 364.288 210.035L363.4 149.272L357.536 144.364L351.85 139.455L300.676 139.624C272.602 139.624 248.436 140.132 247.015 140.64ZM353.805 145.041C355.404 146.225 357.536 148.764 358.602 150.795C361.445 155.873 361.623 364.227 358.78 370.151C355.226 377.598 351.14 378.106 298.366 378.106H248.614L244.35 373.875C241.862 371.674 239.907 367.951 239.907 365.751C239.907 358.642 247.015 357.795 304.408 357.795H357.181V260.473V163.151H299.433H241.684V205.804C241.684 229.161 241.151 247.948 240.618 247.441C240.085 246.763 239.73 230.515 239.73 211.05C239.73 145.887 239.374 151.642 244.35 147.072L248.614 142.84H299.788C337.28 143.01 351.673 143.517 353.805 145.041ZM355.404 260.473V354.41H304.763H254.122L255.189 346.963C256.255 340.024 255.899 338.839 250.746 334.1C243.994 327.668 243.817 323.775 249.68 318.19C253.056 314.974 254.122 312.096 254.122 306.849C254.122 301.772 252.701 298.048 249.68 294.155C243.994 287.216 244.172 283.492 249.858 278.414C253.767 274.86 254.3 272.998 253.945 265.72C253.589 259.119 252.523 256.411 249.325 254.042C245.238 250.995 245.238 250.656 245.238 208.681V166.536H300.321H355.404V260.473ZM228.891 173.306C232.089 175.168 235.11 177.707 235.643 178.892C235.998 180.077 236.176 189.724 235.998 200.049L235.465 219.175L221.783 204.619C210.411 192.771 207.924 189.047 207.924 184.647C207.924 178.553 210.234 174.83 215.92 171.952C220.895 169.244 222.139 169.413 228.891 173.306ZM392.541 190.57C393.429 192.771 395.384 203.942 396.983 215.62C401.958 250.656 405.156 266.566 409.954 280.784C414.929 294.832 415.995 311.758 414.218 341.378C413.685 351.194 414.041 353.733 417.417 357.795C419.371 360.504 421.148 363.55 421.148 364.566C421.148 365.581 404.979 383.692 385.255 404.849C365.532 426.006 349.185 443.608 348.83 443.947C347.23 446.147 302.276 413.142 280.953 394.016L267.804 382.338L310.627 381.491L353.627 380.645L358.425 375.906L363.4 371.336L364.466 322.59C365.355 279.261 365.71 273.337 368.731 267.243C371.751 261.32 372.284 256.58 372.284 230.853C372.284 198.356 372.995 195.817 382.59 190.232C389.875 186.001 390.764 186.001 392.541 190.57ZM233.333 246.764C242.75 250.656 251.279 260.304 251.279 267.243C251.279 275.029 245.593 280.615 237.597 280.615C230.49 280.615 214.143 268.428 212.899 262.504C211.477 255.565 214.143 250.318 220.362 247.441C227.825 243.886 226.403 243.886 233.333 246.764ZM241.329 291.278C249.858 297.879 252.879 303.464 251.279 309.727C249.858 314.974 242.573 320.559 237.064 320.559C231.556 320.559 214.498 307.188 213.254 301.941C211.477 295.34 214.854 288.231 221.073 285.692C228.002 282.815 231.734 284 241.329 291.278ZM240.44 329.36C253.767 339.347 255.544 346.455 247.193 354.58C239.907 361.35 234.754 360.842 223.56 352.21C213.787 344.763 211.833 340.024 214.143 331.222C215.387 326.483 224.804 321.913 230.135 323.436C232.089 323.944 236.709 326.652 240.44 329.36ZM436.429 363.55C437.673 364.904 441.049 367.612 443.537 369.474C447.801 372.69 447.979 373.367 445.669 376.075C442.648 379.291 375.483 451.394 366.065 461.38L359.846 467.981L352.206 460.534L344.565 453.087L387.565 407.218C411.198 381.83 431.276 361.181 432.165 361.181C433.053 361.181 435.008 362.196 436.429 363.55ZM459.529 379.291C461.483 380.984 468.413 386.738 474.987 392.154C481.562 397.571 486.893 403.325 486.893 405.018C486.893 407.895 464.149 431.591 449.223 444.116C440.694 451.225 440.694 451.225 435.896 448.347C433.053 446.655 431.987 446.316 433.231 447.67C434.297 448.855 435.363 450.548 435.363 451.225C435.363 453.256 408.533 469.504 405.156 469.504C403.557 469.504 400.714 467.981 398.937 466.119C394.14 461.042 384.367 461.549 378.148 467.304C375.483 469.843 373.173 472.89 373.173 474.074C373.173 477.121 368.02 476.952 366.776 473.736C365.177 470.012 406.045 426.513 409.243 428.375C410.309 429.052 410.665 428.206 409.954 426.513C409.066 424.313 412.797 419.405 423.458 408.065C431.454 399.432 441.227 388.939 445.136 384.369C452.777 375.567 454.376 375.06 459.529 379.291ZM393.429 468.827C395.028 469.504 397.161 471.366 398.049 473.059C399.648 475.767 398.76 476.613 391.652 479.66C382.412 483.722 378.503 483.214 378.503 477.798C378.503 470.351 385.789 466.119 393.429 468.827Z" stroke="black" stroke-width="2" mask="url(#path-20-inside-1_147_50)"/>
<path d="M289.66 152.996C289.66 154.011 294.457 154.688 300.321 154.688C306.185 154.688 310.982 154.011 310.982 152.996C310.982 151.98 306.185 151.303 300.321 151.303C294.457 151.303 289.66 151.98 289.66 152.996Z" fill="#262424"/>
<path d="M289.66 152.996C289.66 154.011 294.457 154.688 300.321 154.688C306.185 154.688 310.982 154.011 310.982 152.996C310.982 151.98 306.185 151.303 300.321 151.303C294.457 151.303 289.66 151.98 289.66 152.996Z" fill="#D0CDFF" fill-opacity="0.2"/>
<path d="M293.214 363.719C290.371 367.105 292.325 374.213 296.59 375.567C304.408 377.937 310.805 370.828 306.362 364.904C303.342 360.673 296.412 359.996 293.214 363.719ZM304.408 366.597C305.652 370.151 303.697 373.029 300.321 373.029C296.234 373.029 294.28 370.32 295.701 367.105C296.945 364.058 303.342 363.719 304.408 366.597Z" fill="#262424"/>
<path d="M293.214 363.719C290.371 367.105 292.325 374.213 296.59 375.567C304.408 377.937 310.805 370.828 306.362 364.904C303.342 360.673 296.412 359.996 293.214 363.719ZM304.408 366.597C305.652 370.151 303.697 373.029 300.321 373.029C296.234 373.029 294.28 370.32 295.701 367.105C296.945 364.058 303.342 363.719 304.408 366.597Z" fill="#D0CDFF" fill-opacity="0.2"/>
<path d="M244.794 165.267L355.404 165.69L354.96 355.68L252.79 356.103L253.678 339.6L243.461 325.214L252.79 312.096L250.124 297.71L243.905 288.4L247.459 279.938L253.678 268.09L249.68 256.242L242.573 247.779C243.319 220.275 244.048 192.771 244.794 165.267Z" fill="#262424" stroke="black"/>
<line x1="250" y1="175" x2="270" y2="175" stroke="white" stroke-width="2"/>
<line x1="251" y1="196" x2="251" y2="176" stroke="white" stroke-width="2"/>
<line x1="351" y1="196" x2="351" y2="176" stroke="white" stroke-width="2"/>
<line x1="351" y1="348" x2="351" y2="328" stroke="white" stroke-width="2"/>
<line x1="332" y1="175" x2="352" y2="175" stroke="white" stroke-width="2"/>
<line x1="254" y1="347" x2="274" y2="347" stroke="white" stroke-width="2"/>
<line x1="332" y1="347" x2="352" y2="347" stroke="white" stroke-width="2"/>
<path d="M231 174L236.5 179L237 192.5L236 221L209.5 191.5L208.5 190L208 188.5L207.5 186.5V184.5V182.5L208.5 179L209.5 177L211 175L212.5 173.5L214.5 172.5L216.5 171.5L219 170.5L221.5 170L224 170.5L227 172L231 174Z" fill="#D0CDFF" stroke="black"/>
<path d="M410 424L418 413.5L436.5 394L440.5 389L446 383.5L450.5 378L454.5 376L458.5 378.5L465.5 384L471.5 389.5L477 393.5L482.5 399L485 401.5L487.5 405.5L485 409L479.5 415.5L471.5 424L463.5 431.5L459 436L452 442L443 449.5L439 450.5L437 449L433.5 448L436 451.5L432 454.5L424 459.5L416 464.5L406 469.5L402.5 469L398 465.5L390.5 462.5L382.5 464.5L376.5 469L373 476H368.5L366.5 473.5L368.5 469L373 463.5L378.5 457.5L390.5 444L403.5 431.5L410 427V424Z" fill="#484550" stroke="#484550" stroke-width="4"/>
<g clip-path="url(#clip1_147_50)">
<rect x="258" y="211" width="85" height="77" fill="#FFD0C6"/>
<path d="M260.131 209.208C257.781 209.67 255.852 210.855 254.664 212.52L254.095 213.297L254.021 229.619C253.971 245.681 253.971 245.94 254.466 246.939C254.738 247.494 255.431 248.346 255.975 248.808L256.99 249.659L255.975 250.511C255.431 250.973 254.738 251.825 254.466 252.38C253.971 253.379 253.971 253.638 254.021 269.7L254.095 286.021L254.664 286.799C255.481 287.946 256.619 288.853 258.029 289.463L259.29 290H299.986H340.681L341.943 289.463C343.353 288.853 344.491 287.946 345.307 286.799L345.876 286.021L345.951 269.7C346 253.638 346 253.379 345.505 252.38C345.233 251.825 344.54 250.973 343.996 250.511L342.982 249.659L343.996 248.808C344.54 248.346 345.208 247.494 345.505 246.958C346 245.959 346 245.57 346 229.952C346 214.334 346 213.945 345.505 212.946C344.788 211.539 343.328 210.374 341.349 209.652L339.692 209.041L300.481 209.004C269.928 208.986 261.022 209.023 260.131 209.208ZM340.013 211.891C341.176 212.335 341.918 212.927 342.413 213.797C342.734 214.408 342.784 216.406 342.784 229.952C342.784 243.497 342.734 245.496 342.413 246.106C341.918 246.976 341.176 247.568 340.013 248.013C339.123 248.346 337.935 248.364 299.986 248.364C262.036 248.364 260.849 248.346 259.958 248.013C258.796 247.568 258.053 246.976 257.559 246.106C257.237 245.496 257.187 243.497 257.187 229.915C257.187 215.24 257.212 214.371 257.658 213.667C258.152 212.853 258.894 212.298 260.032 211.854C260.7 211.576 264.708 211.558 299.936 211.539C337.96 211.539 339.123 211.558 340.013 211.891ZM340.013 251.306C341.176 251.751 341.918 252.343 342.413 253.212C342.734 253.823 342.784 255.822 342.784 269.367C342.784 282.913 342.734 284.911 342.413 285.522C341.918 286.392 341.176 286.984 340.013 287.428C339.123 287.761 337.935 287.779 299.986 287.779C262.036 287.779 260.849 287.761 259.958 287.428C258.796 286.984 258.053 286.392 257.559 285.522C257.237 284.911 257.187 282.913 257.187 269.33C257.187 254.656 257.212 253.786 257.658 253.083C258.152 252.269 258.894 251.713 260.032 251.269C260.7 250.992 264.708 250.973 299.936 250.955C337.96 250.955 339.123 250.973 340.013 251.306Z" fill="black"/>
<path d="M296.572 214.13C286.75 215.462 279.601 222.217 280.269 229.582C280.764 234.948 284.895 239.611 291.179 241.887C292.564 242.387 294.469 242.942 295.409 243.109C297.71 243.534 302.262 243.534 304.488 243.127C313.914 241.406 320.173 235.189 319.702 228.027C319.554 225.622 319.109 224.326 317.674 222.18C315.2 218.405 310.797 215.648 305.428 214.5C303.301 214.038 298.699 213.853 296.572 214.13ZM301.025 216.684C302.088 217.22 303.127 218.349 303.944 219.904C305.131 222.161 305.428 221.995 299.986 221.995C294.543 221.995 294.84 222.161 296.027 219.904C297.091 217.868 298.773 216.351 299.986 216.351C300.184 216.351 300.653 216.499 301.025 216.684ZM293.43 218.183C293.108 218.701 292.539 219.83 292.193 220.718C291.847 221.606 291.525 222.365 291.5 222.402C291.451 222.42 290.436 222.661 289.249 222.92C288.062 223.179 286.627 223.568 286.082 223.771C285.538 223.975 285.019 224.104 284.944 224.03C284.697 223.864 286.008 222.124 287.245 220.958C287.839 220.385 288.927 219.571 289.669 219.145C290.956 218.405 293.479 217.294 293.875 217.276C293.974 217.276 293.776 217.683 293.43 218.183ZM307.358 217.72C309.189 218.405 311.118 219.571 312.479 220.773C313.815 221.958 315.299 223.845 315.027 224.03C314.953 224.104 314.433 223.975 313.889 223.771C313.345 223.568 311.91 223.179 310.722 222.92C309.535 222.661 308.521 222.42 308.471 222.402C308.446 222.365 308.125 221.606 307.778 220.718C307.432 219.83 306.863 218.701 306.541 218.183C306.195 217.683 305.972 217.276 306.047 217.276C306.121 217.276 306.715 217.48 307.358 217.72ZM305.428 224.678C305.775 225.104 305.972 228.508 305.799 230.599C305.651 232.431 305.552 232.672 305.082 232.857C304.735 233.005 303.004 233.079 299.986 233.079C296.967 233.079 295.236 233.005 294.889 232.857C294.419 232.672 294.32 232.431 294.172 230.599C293.999 228.582 294.197 225.104 294.518 224.715C294.766 224.419 296.423 224.345 301.074 224.4C304.092 224.437 305.304 224.511 305.428 224.678ZM290.956 228.656C290.956 231.136 290.882 232.265 290.684 232.265C290.238 232.265 287.789 231.599 286.676 231.173C285.34 230.674 283.93 229.73 283.633 229.156C283.04 228.009 285.167 226.565 288.903 225.585C290.016 225.289 290.956 225.048 290.956 225.048C290.956 225.048 290.956 226.676 290.956 228.656ZM312.504 225.973C315.175 226.843 316.833 228.194 316.338 229.156C316.041 229.73 314.631 230.674 313.295 231.173C312.182 231.599 309.733 232.265 309.287 232.265C309.089 232.265 309.015 231.155 309.015 228.675V225.104L310.203 225.363C310.846 225.511 311.885 225.788 312.504 225.973ZM289.447 234.56L291.451 234.985L291.896 236.077C292.143 236.688 292.663 237.798 293.059 238.557C293.455 239.297 293.751 239.963 293.677 240C293.628 240.037 292.886 239.796 292.02 239.463C289.818 238.594 286.75 236.262 285.563 234.541L284.623 233.209L286.033 233.671C286.8 233.93 288.334 234.319 289.447 234.56ZM314.433 234.522C313.221 236.262 310.153 238.594 307.951 239.463C307.086 239.796 306.343 240.037 306.269 239.981C306.22 239.944 306.442 239.445 306.789 238.853C307.135 238.279 307.605 237.206 307.877 236.484C308.125 235.744 308.496 235.096 308.669 235.022C308.867 234.948 309.955 234.671 311.118 234.411C312.281 234.152 313.666 233.764 314.21 233.579C314.755 233.375 315.225 233.209 315.274 233.209C315.324 233.19 314.928 233.801 314.433 234.522ZM304.29 236.762C303.127 239.352 301.47 240.962 299.986 240.962C299.516 240.962 298.946 240.759 298.378 240.388C297.487 239.796 296.027 237.779 295.458 236.336L295.112 235.503H299.986H304.859L304.29 236.762Z" fill="black"/>
<path d="M265.575 256.025C264.164 256.395 263.2 257.006 262.655 257.876C262.136 258.671 262.111 258.838 262.185 267.739L262.26 276.788L262.952 277.583C263.447 278.12 264.041 278.509 264.931 278.823L266.218 279.267H276.732C283.683 279.267 287.592 279.193 288.235 279.064C289.522 278.786 291.179 277.546 291.55 276.584C291.921 275.566 291.921 259.467 291.55 258.449C291.179 257.487 289.522 256.247 288.235 255.97C286.751 255.655 266.762 255.711 265.575 256.025ZM287.914 258.671C288.334 258.949 288.359 259.467 288.359 267.48C288.359 277.195 288.483 276.676 286.33 276.676H285.143V273.864C285.143 270.681 284.846 269.922 283.263 268.941L282.422 268.423L282.842 267.776C283.387 266.943 283.56 265.222 283.164 264.186C282.793 263.168 281.234 261.817 279.874 261.28C278.464 260.762 276.361 260.633 274.852 261.021C273.219 261.429 272.056 262.169 271.166 263.372C270.225 264.667 270.127 266.517 270.968 267.702L271.487 268.46L270.498 269.071C268.989 270.015 268.815 270.514 268.815 273.808V276.676H267.479C265.228 276.676 265.352 277.158 265.352 267.48C265.352 259.337 265.377 259.078 265.847 258.727C266.317 258.375 266.663 258.357 276.905 258.357C286.38 258.357 287.493 258.394 287.914 258.671ZM278.365 263.538C280.072 264.167 280.665 265.574 279.75 266.851C278.859 268.09 276.682 268.479 275.124 267.72C273.046 266.702 273.318 264.167 275.594 263.427C276.658 263.094 277.152 263.113 278.365 263.538ZM281.308 271.033C281.902 271.458 281.927 271.569 281.927 274.086V276.676H276.979H272.031V274.03C272.031 272.587 272.13 271.31 272.229 271.199C272.675 270.699 273.54 270.588 277.053 270.57C280.616 270.57 280.739 270.588 281.308 271.033Z" fill="black"/>
<path d="M295.681 256.155L295.038 256.525V259.486C295.038 262.187 295.088 262.465 295.533 262.798C296.028 263.168 296.349 263.168 316.536 263.168H337.069L337.44 262.761C337.762 262.428 337.836 261.762 337.836 259.448V256.525L337.193 256.155C336.525 255.766 336.401 255.766 316.437 255.766C296.473 255.766 296.349 255.766 295.681 256.155ZM334.62 259.56V260.762H316.437H298.254V259.56V258.357H316.437H334.62V259.56Z" fill="black"/>
<path d="M295.434 266.166C294.89 266.758 294.939 267.295 295.607 267.757C296.152 268.146 296.374 268.164 301.668 268.164C306.839 268.164 307.185 268.146 307.655 267.794C308.274 267.332 308.298 266.462 307.705 266.073C307.309 265.796 306.492 265.759 301.52 265.759C295.904 265.759 295.805 265.759 295.434 266.166Z" fill="black"/>
<path d="M312.034 266.092C311.465 266.554 311.515 267.35 312.108 267.794C312.578 268.146 312.925 268.164 324.725 268.164C336.526 268.164 336.872 268.146 337.342 267.794C337.961 267.332 337.985 266.462 337.392 266.073C336.971 265.796 335.734 265.759 324.676 265.759C313.123 265.759 312.405 265.777 312.034 266.092Z" fill="black"/>
<path d="M295.681 270.959C294.914 271.403 294.84 272.013 295.507 272.624C295.977 273.068 296.002 273.068 301.544 273.068C306.665 273.068 307.159 273.031 307.63 272.717C308.297 272.254 308.297 271.421 307.605 270.94C307.085 270.588 306.764 270.57 301.692 270.57C296.645 270.57 296.299 270.588 295.681 270.959Z" fill="black"/>
<path d="M312.157 270.866C311.514 271.199 311.415 272.235 311.984 272.679C312.603 273.142 313.567 273.179 322.176 273.124C331.107 273.068 330.934 273.087 331.28 272.013C331.404 271.625 331.305 271.403 330.81 271.051L330.192 270.57H321.459C313.939 270.57 312.627 270.607 312.157 270.866Z" fill="black"/>
<path d="M295.533 275.936C295.261 276.14 295.038 276.51 295.038 276.769C295.038 277.028 295.261 277.398 295.533 277.602C296.003 277.953 296.349 277.972 301.668 277.972C306.839 277.972 307.358 277.935 307.729 277.639C308.273 277.176 308.249 276.251 307.704 275.881C307.308 275.603 306.517 275.566 301.643 275.566C296.349 275.566 296.003 275.585 295.533 275.936Z" fill="black"/>
<path d="M312.034 275.899C311.489 276.362 311.514 277.287 312.059 277.657C312.454 277.935 313.37 277.972 319.728 277.972C326.63 277.972 326.976 277.953 327.446 277.602C327.718 277.398 327.941 277.028 327.941 276.769C327.941 276.51 327.718 276.14 327.446 275.936C326.976 275.585 326.63 275.566 319.703 275.566C312.974 275.566 312.405 275.585 312.034 275.899Z" fill="black"/>
<path d="M334.522 281.21C332.839 282.191 332.171 282.247 330.514 281.58C328.832 280.914 326.976 280.933 325.146 281.673C323.439 282.357 322.598 282.376 321.484 281.747C319.159 280.433 316.858 280.174 314.805 280.988C313.568 281.488 311.564 283.449 311.564 284.19C311.564 285.059 312.751 285.614 313.939 285.263C314.137 285.207 314.656 284.745 315.102 284.245C316.413 282.709 317.254 282.598 319.456 283.708C321.905 284.93 323.983 285.022 326.284 284.023C327.694 283.394 328.09 283.394 329.673 284.023C332.122 284.967 334.546 284.615 336.798 282.968C337.936 282.117 338.158 281.377 337.416 280.896C336.476 280.285 336.006 280.34 334.522 281.21Z" fill="black"/>
<path d="M262.531 283.375C261.986 283.949 262.036 284.56 262.63 285.004C263.124 285.374 263.446 285.374 276.929 285.374C290.362 285.374 290.758 285.355 291.203 285.004C291.426 284.819 291.648 284.43 291.648 284.171C291.648 283.912 291.426 283.523 291.203 283.338C290.758 282.987 290.362 282.968 276.83 282.968H262.902L262.531 283.375Z" fill="black"/>
</g>
<defs>
<clipPath id="clip0_147_50">
<rect width="195" height="182" fill="white" transform="translate(127 51)"/>
</clipPath>
<clipPath id="clip1_147_50">
<rect width="92" height="81" fill="white" transform="translate(254 209)"/>
</clipPath>
</defs>
</svg>
